<?xml version="1.0" encoding="UTF-8" standalone="no"?>
<!-- Generator: Adobe Illustrator 12.0.0, SVG Export Plug-In . SVG Version: 6.00 Build 51448)  -->
<svg xmlns:dc="http://purl.org/dc/elements/1.1/" xmlns:cc="http://creativecommons.org/ns#" xmlns:rdf="http://www.w3.org/1999/02/22-rdf-syntax-ns#" xmlns:svg="http://www.w3.org/2000/svg" xmlns="http://www.w3.org/2000/svg" xmlns:sodipodi="http://sodipodi.sourceforge.net/DTD/sodipodi-0.dtd" xmlns:inkscape="http://www.inkscape.org/namespaces/inkscape" version="1.1" id="Layer_1" width="870.85522" height="679.94305" viewBox="0 0 870.85523 679.94306" overflow="visible" enable-background="new 0 0 931.904 931.883" xml:space="preserve" inkscape:version="0.48.1 " sodipodi:docname="AJAX.svg" style="overflow:visible"><metadata id="metadata1887"><rdf:RDF><cc:Work rdf:about=""><dc:format>image/svg+xml</dc:format><dc:type rdf:resource="http://purl.org/dc/dcmitype/StillImage"/><dc:title/></cc:Work></rdf:RDF></metadata><defs id="defs1885">
</defs><sodipodi:namedview pagecolor="#ffffff" bordercolor="#666666" borderopacity="1" objecttolerance="10" gridtolerance="10" guidetolerance="10" inkscape:pageopacity="0" inkscape:pageshadow="2" inkscape:window-width="1280" inkscape:window-height="1004" id="namedview1883" showgrid="false" inkscape:zoom="0.79635467" inkscape:cx="303.65968" inkscape:cy="261.85288" inkscape:window-x="-8" inkscape:window-y="-8" inkscape:window-maximized="1" inkscape:current-layer="g4000" fit-margin-top="0" fit-margin-left="0" fit-margin-right="0" fit-margin-bottom="0"/>

<g id="g4000" transform="matrix(1.5018258,0,0,1.5018258,-1730.2457,-301.35697)"><g transform="matrix(1.2202452,0,0,1.2202452,1586.1743,16.573108)" style="opacity:0.66100009;stroke:#00ffff" id="g3186"><path style="fill:none;stroke:#00ffff;stroke-width:1px;stroke-linecap:butt;stroke-linejoin:miter;stroke-opacity:1" d="M -303.75953,332.55191 C -111.33051,350.78708 28.3125,220.74152 28.3125,220.74152" id="path3116" inkscape:connector-curvature="0"/><path style="fill:none;stroke:#00ffff;stroke-width:1px;stroke-linecap:butt;stroke-linejoin:miter;stroke-opacity:1" d="m -294.16208,280.72563 c 185.71081,9.11759 279.286021,-98.37394 279.286021,-98.37394" id="path3118" inkscape:connector-curvature="0" sodipodi:nodetypes="cc"/><path style="fill:none;stroke:#00ffff;stroke-width:1px;stroke-linecap:butt;stroke-linejoin:miter;stroke-opacity:1" d="m -270.64831,234.17797 c 130.04556,9.59745 210.6642,-71.02119 210.6642,-71.02119" id="path3120" inkscape:connector-curvature="0" sodipodi:nodetypes="cc"/><path style="fill:none;stroke:#00ffff;stroke-width:1px;stroke-linecap:butt;stroke-linejoin:miter;stroke-opacity:1" d="m -244.73517,203.4661 c 91.17585,-5.2786 139.64301,-48.94703 139.64301,-48.94703" id="path3122" inkscape:connector-curvature="0" sodipodi:nodetypes="cc"/><path style="fill:none;stroke:#00ffff;stroke-width:1px;stroke-linecap:butt;stroke-linejoin:miter;stroke-opacity:1" d="m -179.84033,164.92213 c -49.54092,37.32535 -16.28742,160.83833 -16.28742,160.83833" id="path3126" inkscape:connector-curvature="0" sodipodi:nodetypes="cc"/><path style="fill:none;stroke:#00ffff;stroke-width:1px;stroke-linecap:butt;stroke-linejoin:miter;stroke-opacity:1" d="M -301.99601,352.22753 C -325.06987,182.22752 -60.059884,45.481008 56.836324,265.27643" id="path3146" inkscape:connector-curvature="0" sodipodi:nodetypes="cc"/><path style="fill:none;stroke:#00ffff;stroke-width:1px;stroke-linecap:butt;stroke-linejoin:miter;stroke-opacity:1" d="m -169.06677,160.63763 c 61.97268,-2.62154 114.709696,113.91197 114.709696,113.91197" id="path3126-9" inkscape:connector-curvature="0" sodipodi:nodetypes="cc"/><path style="fill:none;stroke:#00ffff;stroke-width:1px;stroke-linecap:butt;stroke-linejoin:miter;stroke-opacity:1" d="M -260.14558,347.47186 C -288.64858,128.60957 -77.251369,93.659471 12.499131,270.7004" id="path3146-4" inkscape:connector-curvature="0" sodipodi:nodetypes="cc"/><path style="fill:none;stroke:#00ffff;stroke-width:1px;stroke-linecap:butt;stroke-linejoin:miter;stroke-opacity:1" d="m -176.44711,163.56484 63.79242,162.87426" id="path3184" inkscape:connector-curvature="0"/></g><g id="g3104" transform="matrix(1.2202452,0,0,1.2202452,1061.1522,46.385088)"><path style="fill:#1a1a1a;stroke:none" d="m 310.81837,369.87224 -1.01796,6.4471 80.07984,-0.33932 36.98603,-170.33933 -55.98802,0.33933 1.01796,-4.07186 c 10.51896,-55.6487 -10.17964,-60.05988 -10.17964,-60.05988 z" id="path3091" inkscape:connector-curvature="0" sodipodi:nodetypes="cccccccc"/><path style="fill:#f9f9f9;stroke:#000000;stroke-width:1px;stroke-linecap:butt;stroke-linejoin:miter;stroke-opacity:1" d="m 324.87394,368.54237 -23.51377,0.95975 51.82627,-236.57733 c 23.0339,10.07733 10.5572,64.78284 10.5572,64.78284 z" id="path3024" inkscape:connector-curvature="0"/><rect style="fill:#d40000;fill-opacity:1;stroke:none" id="rect3026-0" width="55.025974" height="174.89487" x="408.38272" y="203.18256" transform="matrix(1,0,-0.21854025,0.97582793,0,0)"/><rect style="fill:#1a1a1a;fill-opacity:1;stroke:none" id="rect3022-9" width="156.6468" height="22.545715" x="336.83917" y="402.3125" transform="matrix(1,0,-0.26870061,0.96322374,0,0)"/><rect style="fill:#ffffff;fill-opacity:1;stroke:#000000;stroke-width:0.76884997;stroke-miterlimit:4;stroke-dasharray:none;stroke-dashoffset:0" id="rect3022" width="156.6468" height="22.545715" x="327.74222" y="394.9147" transform="matrix(1,0,-0.26870061,0.96322374,0,0)"/><path style="fill:none;stroke:none" d="m 297.07333,422.73219 -14.59081,74.31138 c -15.26947,-8.82236 -14.2515,-34.27146 -14.2515,-34.27146 2.71457,-38.68264 5.42914,-40.37925 5.42914,-40.37925 z" id="path3020-2" inkscape:connector-curvature="0" sodipodi:nodetypes="ccccc"/><path style="fill:#b3b3b3;stroke:none" d="m 290.45909,422.46705 7.46507,0.33932 -15.60878,74.6507 -6.44711,-7.12575 1.01797,-61.75649 4.07185,-6.78642 z" id="path3100" inkscape:connector-curvature="0"/><path style="fill:#ffffff;stroke:#000000;stroke-width:1px;stroke-linecap:butt;stroke-linejoin:miter;stroke-opacity:1" d="m 291.13773,417.03791 -14.59081,74.31138 c -15.26947,-8.82236 -14.2515,-34.27146 -14.2515,-34.27146 1.63723,-24.13855 5.42914,-40.37925 5.42914,-40.37925 z" id="path3020" inkscape:connector-curvature="0" sodipodi:nodetypes="ccccc"/><path style="fill:#cccccc;stroke:none" d="m 315.56887,203.60477 7.46507,0 -36.6467,170.67864 -56.32735,0 1.69661,-5.42914 39.36127,-166.26747 z" id="path3102" inkscape:connector-curvature="0"/><rect style="fill:#003380;fill-opacity:1;stroke:none" id="rect3026" width="55.025974" height="174.89487" x="305.92087" y="202.7766" transform="matrix(1,0,-0.21854025,0.97582793,0,0)"/></g><g transform="matrix(1,0,-0.30317396,1,0,0)" style="font-size:52.5242424px;font-style:normal;font-variant:normal;font-weight:900;font-stretch:normal;text-align:start;line-height:125%;letter-spacing:0px;word-spacing:0px;writing-mode:lr-tb;text-anchor:start;fill:#000000;fill-opacity:1;stroke:#000000;stroke-width:0.11163157;stroke-miterlimit:4;font-family:Arial Black;-inkscape-font-specification:'Arial Black, Heavy'" id="text3203"><path d="m 1358.3104,586.24652 -12.102,0 -1.7856,6.08466 -12.6406,0 14.0175,-37.88965 13.2192,0 14.0255,37.88965 -12.9227,0 z m -2.5133,-8.99715 -3.5104,-12.22702 -3.4831,12.22702 z" id="path3031" inkscape:connector-curvature="0"/><path d="m 1376.5868,592.33118 0,-37.88965 19.5492,0 c 3.567,3e-5 6.3309,0.31821 8.2918,0.95453 1.9609,0.63639 3.5438,1.81801 4.7487,3.54484 1.2048,1.72691 1.8072,3.80962 1.8073,6.24816 -10e-5,2.13296 -0.4583,3.97845 -1.3745,5.53646 -0.9164,1.55805 -2.1835,2.82648 -3.8014,3.80531 -1.0194,0.61447 -2.2617,0.98634 -3.7267,1.11563 1.1615,0.0876 2.072,0.37136 2.7313,0.85115 0.4755,0.34303 1.1247,1.02614 1.9476,2.04932 0.8228,1.0232 1.3923,1.94675 1.7087,2.77063 l 5.5076,11.01362 -13.7979,0 -6.2289,-11.53296 c -0.7384,-1.402 -1.3481,-2.27666 -1.8289,-2.62397 -0.7748,-0.53642 -1.6152,-0.80465 -2.5214,-0.80466 l -0.4424,0 0,14.96159 z m 12.5701,-22.95371 4.2381,0 c 0.4862,2e-5 1.4319,-0.1576 2.8371,-0.47286 0.6465,-0.12821 1.1717,-0.4544 1.5757,-0.97858 0.4039,-0.52413 0.6059,-1.13457 0.6059,-1.83133 0,-1.03759 -0.3211,-1.82756 -0.9633,-2.3699 -0.6423,-0.54229 -1.9268,-0.81345 -3.8534,-0.81348 l -4.4401,0 z" id="path3033" inkscape:connector-curvature="0"/><path d="m 1417.2431,554.44153 15.9875,0 5.3425,22.42955 5.3168,-22.42955 15.9458,0 0,37.88965 -10.4317,0 0,-28.11349 -6.2129,28.11349 -9.321,0 -6.1696,-28.11349 0,28.11349 -10.4574,0 z" id="path3035" inkscape:connector-curvature="0"/><path d="m 1466.9943,554.44153 31.656,0 0,8.89616 -19.11,0 0,4.83278 17.7266,0 0,8.54513 -17.7266,0 0,6.24174 19.663,0 0,9.37384 -32.209,0 z" id="path3037" inkscape:connector-curvature="0"/><path d="m 1505.0539,554.44153 31.6559,0 0,8.89616 -19.1099,0 0,4.83278 17.7266,0 0,8.54513 -17.7266,0 0,6.24174 19.6629,0 0,9.37384 -32.2089,0 z" id="path3039" inkscape:connector-curvature="0"/><path d="m 1613.8692,554.44153 17.4878,0 c 3.411,3e-5 6.1864,0.47156 8.3263,1.41457 2.1399,0.94308 3.9042,2.29113 5.2929,4.04415 1.3886,1.75308 2.3931,3.78343 3.0134,6.09106 0.6203,2.30769 0.9305,4.73102 0.9305,7.27001 0,4.00303 -0.4619,7.12202 -1.3857,9.35701 -0.9238,2.235 -2.2118,4.11361 -3.8638,5.63584 -1.6521,1.52223 -3.4463,2.54035 -5.3826,3.05435 -2.5369,0.68177 -4.8472,1.02266 -6.931,1.02266 l -17.4878,0 z m 12.5204,9.37383 0,19.11634 2.2264,0 c 2.2858,10e-6 3.8793,-0.23669 4.7807,-0.71009 0.9014,-0.47339 1.6189,-1.32587 2.1527,-2.55745 0.5338,-1.23156 0.8007,-3.2905 0.8007,-6.17682 0,-3.78286 -0.5889,-6.34057 -1.7664,-7.67315 -1.1777,-1.33252 -3.1503,-1.9988 -5.918,-1.99883 z" id="path3041" inkscape:connector-curvature="0"/><path d="m 1654.6249,554.44153 31.6559,0 0,8.89616 -19.1099,0 0,4.83278 17.7266,0 0,8.54513 -17.7266,0 0,6.24174 19.6629,0 0,9.37384 -32.2089,0 z" id="path3043" inkscape:connector-curvature="0"/><path d="m 1707.7646,554.44153 35.7546,0 0,10.1288 -11.6179,0 0,27.76085 -12.5188,0 0,-27.76085 -11.6179,0 z" id="path3045" inkscape:connector-curvature="0"/><path d="m 1748.3889,554.44153 31.6559,0 0,8.89616 -19.1099,0 0,4.83278 17.7266,0 0,8.54513 -17.7266,0 0,6.24174 19.6629,0 0,9.37384 -32.2089,0 z" id="path3047" inkscape:connector-curvature="0"/><path d="m 1786.6247,592.33118 0,-37.88965 19.5491,0 c 3.567,3e-5 6.331,0.31821 8.2919,0.95453 1.9609,0.63639 3.5437,1.81801 4.7486,3.54484 1.2049,1.72691 1.8073,3.80962 1.8073,6.24816 0,2.13296 -0.4582,3.97845 -1.3745,5.53646 -0.9163,1.55805 -2.1834,2.82648 -3.8013,3.80531 -1.0195,0.61447 -2.2617,0.98634 -3.7268,1.11563 1.1616,0.0876 2.072,0.37136 2.7314,0.85115 0.4755,0.34303 1.1247,1.02614 1.9475,2.04932 0.8228,1.0232 1.3924,1.94675 1.7088,2.77063 l 5.5076,11.01362 -13.7979,0 -6.2289,-11.53296 c -0.7385,-1.402 -1.3481,-2.27666 -1.829,-2.62397 -0.7747,-0.53642 -1.6152,-0.80465 -2.5213,-0.80466 l -0.4424,0 0,14.96159 z m 12.5701,-22.95371 4.2381,0 c 0.4862,2e-5 1.4319,-0.1576 2.8371,-0.47286 0.6465,-0.12821 1.1717,-0.4544 1.5757,-0.97858 0.4039,-0.52413 0.6059,-1.13457 0.6059,-1.83133 0,-1.03759 -0.3212,-1.82756 -0.9634,-2.3699 -0.6422,-0.54229 -1.9267,-0.81345 -3.8534,-0.81348 l -4.44,0 z" id="path3049" inkscape:connector-curvature="0"/><path d="m 1827.5567,592.33118 0,-37.88965 19.5491,0 c 3.567,3e-5 6.331,0.31821 8.2919,0.95453 1.9608,0.63639 3.5437,1.81801 4.7486,3.54484 1.2048,1.72691 1.8073,3.80962 1.8073,6.24816 0,2.13296 -0.4582,3.97845 -1.3745,5.53646 -0.9164,1.55805 -2.1835,2.82648 -3.8013,3.80531 -1.0195,0.61447 -2.2617,0.98634 -3.7268,1.11563 1.1616,0.0876 2.072,0.37136 2.7314,0.85115 0.4755,0.34303 1.1247,1.02614 1.9475,2.04932 0.8228,1.0232 1.3924,1.94675 1.7087,2.77063 l 5.5076,11.01362 -13.7978,0 -6.229,-11.53296 c -0.7384,-1.402 -1.348,-2.27666 -1.8289,-2.62397 -0.7747,-0.53642 -1.6152,-0.80465 -2.5214,-0.80466 l -0.4424,0 0,14.96159 z m 12.57,-22.95371 4.2381,0 c 0.4862,2e-5 1.432,-0.1576 2.8372,-0.47286 0.6465,-0.12821 1.1717,-0.4544 1.5757,-0.97858 0.4039,-0.52413 0.6058,-1.13457 0.6059,-1.83133 -10e-5,-1.03759 -0.3212,-1.82756 -0.9634,-2.3699 -0.6423,-0.54229 -1.9267,-0.81345 -3.8534,-0.81348 l -4.4401,0 z" id="path3051" inkscape:connector-curvature="0"/><path d="m 1868.3124,554.44153 31.6559,0 0,8.89616 -19.11,0 0,4.83278 17.7267,0 0,8.54513 -17.7267,0 0,6.24174 19.663,0 0,9.37384 -32.2089,0 z" id="path3053" inkscape:connector-curvature="0"/></g></g></svg>