<?xml version="1.0" encoding="UTF-8" standalone="no"?>
<!-- Created with Inkscape (http://www.inkscape.org/) -->
<svg version="1.1" id="svg305" width="99.439583" height="98.43544" viewBox="0 0 99.43958 98.435437"
  sodipodi:docname="BR.svg" inkscape:version="1.2.2 (b0a8486541, 2022-12-01)"
  xmlns:inkscape="http://www.inkscape.org/namespaces/inkscape"
  xmlns:sodipodi="http://sodipodi.sourceforge.net/DTD/sodipodi-0.dtd"
  xmlns:xlink="http://www.w3.org/1999/xlink" xmlns="http://www.w3.org/2000/svg"
  xmlns:svg="http://www.w3.org/2000/svg">
  <g id="g313" inkscape:groupmode="layer" inkscape:label="Page 1"
    transform="matrix(1.3333333,0,0,1.3333333,-0.70356676,-1.1402937)">
    <g id="g315" />
    <path
      d="m 33.837641,74.451396 c -7.371,-0.64 -13.39,-2.496 -18.066,-5.566 -2.516,-1.656 -3.832,-2.832 -6.4810003,-5.809 -6.152,-6.91 -8.38200004,-12.668 -8.73400004,-22.558 -0.156,-4.45 0.309,-7.91 1.61700004,-12.02 1.434,-4.5 4.766,-10.203 8.1960003,-14.019 4.554,-5.0709996 11.273,-9.3989996 18.027,-11.6179992 9.742,-3.19900001 22.051,-2.52300001 30.453,1.6759996 8.973,4.481 14.620999,12.0279996 16.011999,21.3869996 0.375,2.523 0.312,7.336 -0.129,9.934 -0.418,2.464 -1.547,6.261 -2.316,7.781 -1.921999,3.804 -5.148999,7.344 -7.843999,8.605 -1.442,0.672 -1.789,0.735 -4.094,0.739 -2.258,0.007 -2.672,-0.063 -3.961,-0.661 -1.68,-0.781 -2.91,-1.894 -4.254,-3.855 -1.469,-2.149 -3.082,-5.727 -3.23,-7.184 -0.145,-1.39 -0.043,-1.547 1.367,-2.09 2.39,-0.917 4.23,-2.921 5.035,-5.48 1.035,-3.273 0.387,-5.906 -1.707,-6.945 -0.609,-0.305 -1.418,-0.575 -1.793,-0.602 l -0.684,-0.047 -1.117,4.281 c -0.613,2.356 -1.328,4.567 -1.586,4.911 -0.621,0.832 -2.351,1.726 -3.336,1.726 -0.945,0 -1.535,-0.703 -1.535,-1.832 0,-0.797 1.391,-5.887 2.016,-7.383 0.195,-0.468 0.277,-0.902 0.183,-0.961 -0.093,-0.058 -0.921,0.051 -1.839,0.243 -1.77,0.371 -2.95,0.265 -3.161,-0.289 -0.203,-0.524 -0.558,-0.395 -0.562,0.203 -0.004,1.629 -2.801,4.711 -5.457,6.023 -0.824,0.406 -1.5,0.82 -1.5,0.918 0,0.102 0.461,0.297 1.019,0.438 1.422,0.359 3.274,1.214 4.082,1.89 2.688,2.25 2.293,7.035 -0.894,10.758 -2.555,2.984 -9.543,7.031 -14.012001,8.109 -3.143999,0.762 -7.354999,0.149 -9.253999,-1.343 -0.48,-0.379 -0.621,-0.703 -0.621,-1.442 0,-0.797 0.176,-1.14 1.09,-2.117 1.672,-1.789 2.043,-1.871 5.023,-1.125 5.692,1.426 8.348,0.461 10.461,-3.812 1.266,-2.555 1.243,-5.008 -0.062,-6.493 -0.957,-1.093 -1.699,-1.464 -3.832,-1.914 -2.055001,-0.429 -2.652001,-0.875 -2.551001,-1.89 0.074,-0.758 0.238,-0.879 2.348001,-1.739 1.371,-0.562 4.148,-3.164 4.789,-4.492 0.562,-1.156 0.652,-3.066 0.187,-3.984 -0.468,-0.93 -2.328,-1.516 -4.355,-1.379 -1.168,0.082 -1.746001,0.234 -1.949001,0.512 -0.16,0.218 -0.528,1.449 -0.817,2.73 -1.405999,6.234 -1.772999,7.102 -3.417999,8.055 -1.574,0.918 -2.144,0.988 -2.933,0.371 -0.645,-0.508 -0.672,-0.609 -0.551,-1.996 0.07,-0.801 0.512,-2.688 0.98,-4.196 0.469,-1.503 0.805,-2.816 0.746,-2.914 -0.062,-0.093 -0.765,0.09 -1.566,0.414 -2.926,1.18 -3.578,0.29 -1.957,-2.683 1.34,-2.461 3.34,-3.66 7.719,-4.633 2.668,-0.59 9.676,-0.57 11.64,0.035 3.27,1.008 5.063,2.473 5.641,4.61 0.18,0.656 0.359,1.234 0.402,1.285 0.043,0.054 0.293,-0.176 0.555,-0.508 1.102,-1.402 4.309,-2.164 9.133,-2.168 3.719,-0.008 5.984,0.473 8.453,1.789 4.203,2.238 5.809,5.789 4.527,10.004 -0.425,1.41 -0.757,1.965 -1.933,3.219 -0.934,1 -1.891,1.738 -2.813,2.172 -1.941,0.91 -2.074,0.992 -2.183,1.316 -0.145,0.438 2.617,3.016 3.89,3.633 0.895,0.433 1.414,0.523 2.547,0.441 1.981,-0.144 2.465,-0.66 3.344,-3.543 1.207,-3.972 1.316,-4.836 1.305,-10.332 -0.008,-4.773 -0.055,-5.332 -0.629,-7.453 -2.325,-8.617 -8.715,-15.2259996 -17.016,-17.6009997 -4.305,-1.2309999 -9.398,-1.3749999 -13.894,-0.395 -5.579,1.215 -10.993001,4.3090001 -15.571,8.8909997 -3.039,3.039 -4.824,5.507 -6.515,8.988 -2.325,4.801 -3.067,7.633 -3.614,13.848 -0.4680003,5.265 0.469,12.375 2.168,16.496 2.66,6.449 7.641,11.597 13.789,14.257 4.586,1.981 9.129,2.704 15.731,2.504 5.98,-0.183 10.937,-1.207 17.637,-3.64 1.308,-0.477 2.468,-0.778 2.574,-0.672 0.234,0.234 1.16,2.89 1.16,3.328 0,0.406 -0.805,0.816 -3.481,1.762 -7.668,2.711 -17.339,3.863 -26.039,3.101 z"
      style="fill:#111827;fill-opacity:1;fill-rule:nonzero;stroke:none" id="path327"
      inkscape:label="path327" />
  </g>
</svg>