<svg xmlns="http://www.w3.org/2000/svg" viewBox="0 0 69.579432 91.12364835164834" style="max-height: 500px" width="69.579432" height="91.12364835164834">
<g opacity="0.995" id="Logo_Bleu" data-name="Logo Bleu">
<path transform="translate(-353.609 -77.329)" id="Tracé_54" fill-rule="evenodd" fill="#02426a" data-name="Tracé 54" d="M390.181,84.9c.021-.019.473-.52.53-.583s.346-.36.4-.334c.016.055-.079.173-.092.214a2.582,2.582,0,0,1-.344.538c-.091.06-.227.156-.251.164,0,.023.034.016.037.046.01.057-.1.1-.16.1a.241.241,0,0,1-.123,0,1.091,1.091,0,0,0,0-.141m-.483,1.934a.471.471,0,0,1,.078-.125.824.824,0,0,1,.081-.133c.014-.013.9-.506,1.073-.606a.28.28,0,0,0,.081-.076c-.031.007-.569.238-.611.266-.061.042-.47.211-.5.117-.018-.063.107-.23.151-.251a7.3,7.3,0,0,0,1.227-.423c.042-.021.1-.055.141-.02a3.285,3.285,0,0,1-1.722,1.252m-1.01.19c-.094.015-.248-.042-.251-.1,0-.041.892-.389,1-.512a6.063,6.063,0,0,1-.838.212c.008-.076,0-.139.047-.144.379-.039,1.141-.392,1.174-.35a3.09,3.09,0,0,1-1.135.9m.932-3.433a.339.339,0,0,1-.16.282c-.039-.015-.076,0-.117-.01-.021-.008-.125,0-.178-.011a.588.588,0,0,0-.126-.009c-.047.008-.1-.008-.107-.047a.332.332,0,0,1,.009-.063,1.289,1.289,0,0,1,.053-.267,1.6,1.6,0,0,1,.626.127m.033,1.9c.011.029.044.059.021.086-.076-.039-.074-.154-.1-.242,0-.015.011-.015.024-.016.037.04.039.114.057.172m-.217-1.149c-.07,0-.524-.06-.524-.06s-.073-.405.121-.363c.024.007.44.008.47.068.01.047,0,.313-.068.355m.024.123a2.41,2.41,0,0,1-.02.274c-.018.016-.376-.008-.407,0-.159.035-.115-.2-.131-.321a1.137,1.137,0,0,1,.558.047m-.353.739c-.188.049-.14-.219-.17-.36a1.772,1.772,0,0,1,.489-.01c.04.033.105.408-.009.389-.086-.015-.31-.02-.31-.02m.3.1c.128,0,.1.195.134.254a2.42,2.42,0,0,0-.383-.006.3.3,0,0,1-.088-.01c-.008-.04-.029-.083-.039-.125s-.018-.117.055-.13.193.021.32.016m-.759.321c.062.013.134.008.136.059-.023.039-.092.028-.149.024s-.1-.005-.141-.007-.2,0-.2-.037c-.005-.021.068-.083.087-.083a1.2,1.2,0,0,1,.271.044m-.005.19c.065,0,.1-.005.107.032.006.055-.187.05-.232.046s-.469.013-.477-.036a.3.3,0,0,1,.141-.12c.14,0,.32.066.46.078m2.325-1.15a.133.133,0,0,1,.018-.058,1.479,1.479,0,0,1,.092-.193,1.306,1.306,0,0,1,.117-.292,4.952,4.952,0,0,0,.718-.67c-.024.013-.52.46-.621.436a1.846,1.846,0,0,1,.3-.543.214.214,0,0,1,.146-.086c.024.031-.007.072-.015.1.178-.063.173-.392.334-.392.042,0,.047.081.053.1.055-.066.072-.2.136-.267.032-.034.118-.068.155-.044s-.063.18-.1.272c-.065.177-.105.375-.188.548a9.226,9.226,0,0,1-1.145,1.091m-.8.6h0a1.427,1.427,0,0,0,.235-.1c.039-.028.063-.1.127-.1a2.13,2.13,0,0,1-.506.736,6.618,6.618,0,0,1-1.109.514c-.108.023-.173.024-.165-.076a.136.136,0,0,1,.029-.1,6.071,6.071,0,0,0,.859-.349s-.7.141-.738.125c-.018-.079.026-.2.1-.208.019,0,.418,0,.548,0,0-.008.426.026.523-.083a.642.642,0,0,0,.094-.371m-.389.318a.352.352,0,0,1,.091-.169c.044-.058.084-.117.126-.172a.036.036,0,0,1,.034.011,1.017,1.017,0,0,1-.178.266c-.02.026-.031.076-.073.063m.183-1.508a2.01,2.01,0,0,1-.238.358c.006.039-.011.1.016.117s.052-.04.066-.063.14-.219.175-.207c.07.021-.217.365-.241.436-.013.032-.01.118.023.125s.224-.3.263-.29c.011,0,.01.005.01.01a3.8,3.8,0,0,1-.272.436c-.007.042.018.133.044.136s.178-.255.229-.287c.047.036,0,.081-.015.109-.044.068-.219.3-.2.4-.037.006-.036-.028-.065-.029,0-.05-.042-.235-.042-.287,0-.016-.039-.486-.039-.534s.01-.14,0-.219c.021-.013.2-.191.242-.227.008-.006.034,0,.044.015m-.054-.175a1.517,1.517,0,0,1-.261.329c.011-.07.039-.182.039-.2a1.341,1.341,0,0,1,.183-.189c.039,0,.053.028.039.063m-.117-.227c.075.019-.011.121-.057.173-.024.028-.065.07-.092.044a.509.509,0,0,1,.149-.217m.234-2.534c.034,0,.541.389.785.571a.357.357,0,0,1-.033.066c-.052.01-.091-.039-.128-.063a7.341,7.341,0,0,1-.67-.517.051.051,0,0,1,.046-.057m.657.73c.18.109.126.253.091.256s-.075-.065-.115-.094c-.063-.048-.118-.074-.16-.105a.656.656,0,0,0,.254.258,1.5,1.5,0,0,1-.344.4c-.037.026-.055.049-.109.049s-.747-.5-.773-.514-.1-.065-.112-.1a2.3,2.3,0,0,1,.147-.387c.028-.065.214-.359.263-.362s.175.094.2.112.653.489.653.489m-1.5.23c.009-.037.057-.053.1-.04a1.239,1.239,0,0,1,.259.167c.153.112.55.391.626.444.049.036.138.084.075.16a1.528,1.528,0,0,0-.3-.2c.018.045.075.083.12.121a.583.583,0,0,1,.127.112c-.057.015-.1-.039-.143-.068-.251-.188-.417-.3-.686-.478-.063-.044-.217-.1-.185-.217m.9.83a.577.577,0,0,1-.058.1.605.605,0,0,0-.144-.143c-.031-.021-.081-.055-.11-.019a.192.192,0,0,0,.073.107.352.352,0,0,0,.162.079c-.092.156-.183.285-.292.451-.05-.015-.991-.316-1.005-.339s0-.076.016-.1.173-.279.217-.339.229-.4.269-.384a.274.274,0,0,1,.105.053c.151.1.679.464.767.538m-3.263.85c.065-.01.307-.041.35,0,0,.044-.063.034-.112.034a.793.793,0,0,1-.239-.013Zm-1.081.024c.065-.009.306-.044.35.005,0,.044-.063.032-.112.032s-.217.011-.238-.015Zm1.159.195c.028,0,.208-.042.224.024-.032.052-.157.028-.186.029s-.117.02-.123-.024.06-.031.086-.029m.1.209v.028a.316.316,0,0,1-.169.005c-.019-.052.125-.049.169-.033m.957-1.522a2.047,2.047,0,0,1-.563-.329,2.163,2.163,0,0,1-.292-.3,1.743,1.743,0,0,1-.232-.36c0-.035.027-.057.049-.047.058.023.089.1.13.164a2.227,2.227,0,0,0,.747.708,1.721,1.721,0,0,0,.31.127c.032.01.079.013.088.057-.063.046-.162,0-.237-.015m-.311-.358a1.771,1.771,0,0,1,.423.039.525.525,0,0,1,.034.1.567.567,0,0,1-.224.015.288.288,0,0,1-.156-.071c-.031-.021-.081-.04-.078-.078m-.264-.989c-.152-.008-.284-.013-.313-.011-.042-.018-.047-.085-.058-.125a.349.349,0,0,0-.392-.277.554.554,0,0,0-.407.234,2.612,2.612,0,0,1-.688-.138,2.257,2.257,0,0,1-.627-.337c-.2-.166-.148-.1-.161-.2a1.684,1.684,0,0,1,1.506-1.065,1.646,1.646,0,0,1,.618.11c-.018.05-.293.019-.353.015v.044c.068.011.521.033.626.068a.153.153,0,0,1,.1.092,1.915,1.915,0,0,1-.358,0c-.023,0-.063-.019-.053.023.188.066.582,0,.615.16.013.053-.105.026-.149.026-.016,0-.009.024-.015.042.121.034.34.021.334.141,0,.058-.2-.026-.208.037s.182.034.28.058c.023.007.091.068.078.109s-.26.009-.329.009c-.01.008.013.042.013.042s.42.026.443.151a1.657,1.657,0,0,1-.538,0c0,.018,0,.016.01.039.131.015.3.031.441.053a1.231,1.231,0,0,1,.127.029c.015.007.071.066.039.107a1.751,1.751,0,0,1-.37-.009.1.1,0,0,1-.03.053,1.865,1.865,0,0,1,.438.087.08.08,0,0,1,0,.081,2.658,2.658,0,0,1-.438-.023c-.028,0-.079-.015-.071.028.065.028.478.071.514.092s.055.1.008.121a3.324,3.324,0,0,0-.373-.034.115.115,0,0,1-.024.044c.076.036.329.018.4.063.029.018.044.074.011.1-.094,0-.238-.008-.44-.019v.05c.154.013.453.026.453.1,0,.031-.036.055-.081.057-.122.008-.482-.015-.482-.015s0,.032.011.041a2.15,2.15,0,0,1,.522.063.105.105,0,0,1-.023.1c-.109-.01-.227-.007-.336-.015,0,0,0,.036,0,.054a1.387,1.387,0,0,1,.34.029v.12c-.094-.007-.191-.01-.287-.013a.417.417,0,0,0-.019.053s.214.013.311.028a.357.357,0,0,0,.008.121c-.144-.006-.279-.026-.431-.029v.034a3.681,3.681,0,0,0,.441.05.171.171,0,0,1,.029.1,1.481,1.481,0,0,1-.512-.015c-.032-.011-.267-.229-.277-.3,0-.033.046-.017.073-.021v-.028c-.036-.028-.094-.008-.141-.029s-.083-.083-.078-.1c.014-.053.112-.015.175-.034.008-.044-.215-.031-.258-.087-.011-.015-.037-.036-.029-.063.02-.06.206,0,.272-.008,0-.019-.006-.024,0-.041-.075-.019-.2.015-.238-.042,0-.044,0-.118.044-.131s.164.009.308.019Zm-2.832-.74c.015-.04.059-.1.085-.1s.026.022.048.057a1.746,1.746,0,0,0,.631.465c0,.029-.04.01-.053.02a.014.014,0,0,0,0,.024,1.084,1.084,0,0,0,.282.04c.07,0,.31.1.465.11v.02a1.1,1.1,0,0,1-.232.013v.036a1.742,1.742,0,0,0,.4-.005.025.025,0,0,1,.029.029,1.212,1.212,0,0,1-.855.169,5.747,5.747,0,0,1-.818-.11c-.3-.055.01-.73.026-.769m-.1.864a6.309,6.309,0,0,0,.964.114c.224-.01.467-.015.708-.026.034,0,.1-.011.1.031.006.06-.258.083-.277.091a.173.173,0,0,1,.009.053c.107-.013.216-.013.324-.034-.044.033-.088.091-.144.127a3.922,3.922,0,0,1-.4.214,5.1,5.1,0,0,1-1.076.224,2.183,2.183,0,0,1-.563-.011,3.882,3.882,0,0,1,.353-.782m.011.966a1.667,1.667,0,0,1-.423-.039c0-.083.079-.057.125-.053a4.043,4.043,0,0,0,1.524-.195,3.171,3.171,0,0,0,.66-.358.04.04,0,0,1,.042-.005c.013.065-.243.211-.344.277a3.678,3.678,0,0,1-1.584.373m1.457,1.6c.046-.008.162-.047.165,0s-.115.039-.165.024Zm-2.832,2.459c-.072-.066-.235-.253-.222-.3s.092,0,.154.029.2.127.384.2a5.919,5.919,0,0,0,.635.115c.037.028.039.068.047.146a.2.2,0,0,1-.179.034,6.82,6.82,0,0,1-.66-.253,1.374,1.374,0,0,0,.405.29,1.609,1.609,0,0,0,.481.162c.086,0,.149.039.107.1a.24.24,0,0,1-.18.066,2.127,2.127,0,0,1-.974-.595m-1.819-.844c.047-.034.1,0,.146.019s.2.079.229.088a8.7,8.7,0,0,1,1.086.446c.026.039.105.151.024.175a7.075,7.075,0,0,1-1.071-.416.67.67,0,0,0,.261.173c.121.066.872.494.888.511a.749.749,0,0,1,.081.129.455.455,0,0,1,.078.127c-.313,0-1.722-.944-1.722-1.251m1.189-.611c.018.125-.17.029-.232-.034a1.864,1.864,0,0,1-.214-.2,4.417,4.417,0,0,1-.349-.55c-.013-.031-.1-.144-.087-.193.018-.12.321.22.4.319a3.9,3.9,0,0,1,.363.418,1.352,1.352,0,0,1,.117.241m.078.611a.85.85,0,0,1-.268-.282c-.037-.074-.123-.165-.105-.227,0,0,0-.008.005-.01.076-.018.274.195.285.2a.13.13,0,0,1,.024.156c.016.05.1.1.059.159m1.154-2.153c.1.026.083.311.073.374s-.491.115-.548.081a.391.391,0,0,1-.081-.3c.016-.087.456-.18.556-.154m.073.794c-.01.083-.527.11-.548.02a.585.585,0,0,1,0-.261,1.08,1.08,0,0,1,.553-.01c.037.055.005.17,0,.251m.31-.94c.082-.015.156.311.156.311a2.949,2.949,0,0,1-.049,1.683.363.363,0,0,1-.212-.015,3.433,3.433,0,0,0,.086-1.761c-.014-.058-.066-.2.02-.219m4.546.219a3.4,3.4,0,0,0,.088,1.761.37.37,0,0,1-.214.015,2.966,2.966,0,0,1-.048-1.683s.071-.326.157-.311.032.16.018.219m-4.478,1.832c.023,0,0,.023,0,.039.026.047.084.06.112.1-.114.011-.248,0-.359.015-.006-.01.005-.125.044-.149.062,0,.146-.009.2-.006m4.573.006c.039.024.052.14.044.149-.111-.013-.245,0-.359-.015.028-.042.086-.055.112-.1.008-.016-.018-.037,0-.039.052,0,.136,0,.2.006m-5.063-.627c-.1.032-.44.052-.46-.015s-.023-.3.077-.323.4-.047.456.028.026.28-.073.31m-.4.091c.118-.007.449-.018.464.058s-.047.282-.149.3a1.626,1.626,0,0,1-.381,0c-.127-.006-.052-.36.066-.366m-.264.763a.581.581,0,0,1,.17-.326.783.783,0,0,1,.368,0c.1.036-.05.331-.115.35s-.42.042-.423-.029m.731.149c.058.029.105.188.073.2s-.733-.126-.733-.126a1.036,1.036,0,0,0,.353.181l.5.169c.024.023.026.052.029.1.006.1-.05.1-.16.076a4.4,4.4,0,0,1-.607-.174c-.154-.066-.5-.315-.48-.377.024-.1,1-.057,1.023-.046m.219-1.861a.1.1,0,0,1-.1-.146c.021-.032.169-.023.175,0a.822.822,0,0,1,.005.1c0,.037-.083.047-.083.047m-.068-.209c-.057-.032-.07-.2.086-.155.036.011.071.087.045.118s-.1.055-.131.037m-.063-.238c.011-.06.149-.079.156-.018s-.128.07-.156.018m4.852.4a.625.625,0,0,1,0-.1c.005-.023.152-.032.174,0a.1.1,0,0,1-.1.146s-.086-.009-.083-.047m.019-.2c-.028-.031.007-.107.043-.118.159-.044.146.123.089.155a.142.142,0,0,1-.131-.037m.037-.219c.007-.062.146-.042.156.018-.026.052-.16.037-.156-.018m-6.872-1.7c.285-.229.515-.383.8-.61a.232.232,0,0,1,.028.115c-.052.036-.143.115-.143.115a7.554,7.554,0,0,1-.619.467c-.052-.041-.052-.084-.068-.087m.531.859c0-.024.063-.078.086-.1a2.81,2.81,0,0,0,.284-.272.509.509,0,0,0-.187.115.816.816,0,0,0-.24.2c-.031-.011-.076-.034-.078-.068s.044-.058.083-.092.186-.195.254-.269c-.107.052-.368.3-.408.3a.072.072,0,0,1-.063-.058c-.005-.079.165-.146.17-.225-.046,0-.177.133-.2.134a.056.056,0,0,1-.052-.06c0-.078.193-.172.2-.256-.037.016-.227.182-.261.178-.057-.006-.081-.191.11-.308.134-.084.734-.54.833-.563.045-.011.122.1.149.146a1.485,1.485,0,0,1,.146.25,1.25,1.25,0,0,1,.138.386c-.063.063-.822.6-.851.608s-.107-.02-.111-.05m.164.285c.015-.026.042-.039.063-.059a1.248,1.248,0,0,0,.188-.173.366.366,0,0,0-.248.133c-.011.023-.011.066-.034.072s-.052-.011-.029-.072.144-.128.188-.162c.186-.151.212-.182.4-.329a2.074,2.074,0,0,1,.368-.243c.058-.029.1.055.076.117s-.126.117-.185.157c-.131.094-.2.128-.318.227s-.2.174-.334.274c-.034.026-.092.083-.141.059m.115.065a9.1,9.1,0,0,1,.832-.621c.045-.029.331.415.428.585a.346.346,0,0,1,.074.212,3.541,3.541,0,0,1-.96.347c-.032-.026-.248-.352-.374-.524m.237.705c.063-.059.177-.1.193-.02s.042.627.039.736-.021.347-.024.392-.042.259-.059.35a3.388,3.388,0,0,1-.121.4c-.024.06-.089.185-.159.175s-.092-.091-.117-.156a2.062,2.062,0,0,1-.078-.465,4.767,4.767,0,0,1,.078-.732,1.966,1.966,0,0,1,.248-.683m-4.021-1.989a12.729,12.729,0,0,1,3.695,2.172c.036.036.045.1.01.112s-.073-.062-.092-.083a2.355,2.355,0,0,0-.294-.268c.029.05.35.4.366.423s.034.142-.015.146c-.024,0-.044-.052-.058-.068a2.23,2.23,0,0,0-.291-.287c.039.061.216.295.252.334.052.057.126.134.054.224-.037-.006-.05-.049-.072-.073-.037-.039-.165-.21-.219-.223,0,.042.364.379.261.544-.044,0-.057-.052-.076-.078a20.077,20.077,0,0,0-1.407-1.466c-.368-.316-1.983-1.31-2.052-1.342s-.078-.068-.062-.068m4.559,5.961c0-.039.031-.05.052-.068-.062-.021-.161.057-.256.068-.078.008-.2-.01-.209-.058,0-.065.105-.044.131-.088-.1-.023-.224.052-.339.047a.244.244,0,0,1-.18-.083.146.146,0,0,0-.005-.061c-.11-.031-.329-.018-.271-.17-.021-.036-.071-.021-.107-.03a.2.2,0,0,1-.1-.058c-.011-.016-.334-.433-.358-.48s-.122-.177-.039-.2c.05-.013.753.388,1.469.679a.106.106,0,0,1,.073.1c0,.023-.059.063-.088.066a.345.345,0,0,1-.141-.024c-.032-.013-.606-.227-.679-.237,0,.039.131.094.16.11a1.969,1.969,0,0,0,.394.17,2.754,2.754,0,0,0,.392.107c.078.013.424.068.417.159s-.256.123-.315.05m.329-.392c.041.089.543.255.543.31s-.083.063-.175.078a.766.766,0,0,1-.388-.177,3.294,3.294,0,0,1-.762-.822c-.024-.04-.086-.105-.024-.128a2.137,2.137,0,0,0,1.4.739c.066,0,.2.16.122.188-.148.052-.636-.155-.718-.188m2.013.668c-.049,0-.913,0-1.276-.029-.01-.033-.066-.331,0-.355.031-.011,1.015,0,1.386-.018l.109,0v.408l-.219,0m-1.723,1.341a3.34,3.34,0,0,1,.247-.381c.016,0,.139-.028-.008.175a1,1,0,0,0-.083.135c-.065.107-.151.261-.182.257-.079-.019-.008-.126.026-.186m.794-.011c-.031-.015-.011-.092.005-.11.042-.05.334.011.35.018s.02.023.029.036c.008.088-.052.092-.091.11a2.569,2.569,0,0,1-.294-.053m.4-.16c-.011.046-.1.016-.164.01a.536.536,0,0,1-.185-.037c-.009-.008-.008-.021-.014-.029.017-.085.19-.015.268-.007.05.007.115,0,.1.063m.016.118a.647.647,0,0,1,.027-.131.062.062,0,0,1,.1.013.559.559,0,0,1-.029.151c-.021.115-.034.206-.059.319-.009.057-.015.125-.058.131a.08.08,0,0,1-.073-.033c.028-.078.06-.3.065-.315.01-.042.011-.09.024-.136m-.569-.039c-.037.1-.084.195-.125.3-.021.052-.04.126-.087.12-.075-.01-.017-.115.015-.188.039-.094.079-.181.118-.283.019-.047.042-.123.088-.13.089-.01.015.125-.008.185m-.282.323a.07.07,0,0,1-.053.057c-.039,0-.2-.05-.193-.089.026-.094.245,0,.246.033m-.173-.153c-.023-.127.185-.06.2-.057a.061.061,0,0,1,.053.04c.008.034-.045.094-.062.094s-.081-.015-.083-.015a.144.144,0,0,1-.105-.063m.319-.24c-.048-.018-.142-.011-.141-.059s.016-.048.039-.065c.094-.07.241.081.1.123m-.009.078c0,.037-.023.1-.072.087s-.139-.021-.144-.079a.1.1,0,0,1,.044-.07c.047-.023.167.026.172.062m-3.818,6.906c-.019-.028-.225-.329-.263-.388s-.248-.446-.295-.538a8.062,8.062,0,0,1-.521-1.393,4.321,4.321,0,0,1-.112-1.17,7.9,7.9,0,0,1,.219-1.632c0-.018.295.413.412.6a8.241,8.241,0,0,0,1.343,1.376c.065.05.121.062.087.136s-.2.533-.2.594c-.021.006-.04-.021-.053-.036-.052-.052-.092-.11-.151-.164a7.847,7.847,0,0,1-.577-.674c-.049-.065-.452-.635-.517-.738s-.136-.242-.18-.237c0,0-.083,0-.071.563a5.923,5.923,0,0,0,1.229,3.5s.037.07-.053.147c-.047.041-.1.093-.159.141,0,0-.023.011-.037,0s-.063-.05-.1-.087m5.588,3.182s-.04-2.342-.044-2.354c-.009-.044-.068-.034-.133-.037-.008,0-.825-.028-1.006-.041a6.4,6.4,0,0,1-1.151-.253,6.181,6.181,0,0,1-1.932-1.067,7.012,7.012,0,0,1-1.647-2.209c-.256-.556-.318-.728-.353-.825-.018-.045-.023-.113-.078-.136-.052.029-.022.088-.015.127.02.1.1.358.115.4a5.894,5.894,0,0,0,.389.809,2.233,2.233,0,0,1,.2.391c-.024-.023-.259-.394-.353-.564a3.7,3.7,0,0,0-.263-.519c-.034.121.031.233.065.433a5.014,5.014,0,0,0,.314.9,6.132,6.132,0,0,0,.339.524.732.732,0,0,1,.131.208c-.039-.018-.392-.482-.47-.585a.56.56,0,0,0,.073.247,3.068,3.068,0,0,0,.708.9c.047.049.284.274.306.3s.317.261.327.311a2.677,2.677,0,0,1-.3-.209c-.078-.071-.394-.371-.525-.514-.06-.055-.033.013-.033.013a5.3,5.3,0,0,0,2.13,1.6c1.749.715,2.628.9,3.2,2.156Zm.071-4.411a2.077,2.077,0,0,0,.495-.024c.011-.011-.005-.026,0-.047-.167-.007-.326.009-.493.009l0-.141c.1,0,.478-.008.478-.059s-.346.011-.478-.031l0-.114c.094-.018.425-.016.425-.058s-.326,0-.427-.021v-.131a2.314,2.314,0,0,0,.5-.061c0-.037-.349-.017-.5-.017V94c.131-.005.495.015.495-.031s-.383-.028-.495-.035v-.146c.068.008.412.019.412-.031s-.352-.037-.412-.039c0-.032,0-.091,0-.136.128-.013.5-.01.5-.053s-.384-.018-.5-.033v-.133c.076-.013.446-.013.446-.057s-.357-.031-.446-.036v-.136c.16-.018.5.016.5-.037s-.376-.029-.5-.036v-.144c.075-.006.46,0,.46-.039s-.374-.047-.46-.044V92.7a1.053,1.053,0,0,0,.4-.044,1.864,1.864,0,0,0-.4-.034v-.131a2.362,2.362,0,0,0,.508-.037c0-.021.026-.047.015-.053s-.462.018-.522.007v-.141a8.439,8.439,0,0,0,.945-.065c.032,0,.193-.059.276-.02.042.146-.4.188-.5.2.031.07.363.021.426.015.089-.01.1.039.1.112-.042.042-.407.071-.421.107.033.05.342,0,.392-.005.031.017.045.047.039.1-.078.1-.319.032-.407.123.055.028.391-.026.421.013a.108.108,0,0,1,0,.1c-.028.041-.428.062-.426.1a3.964,3.964,0,0,0,.407,0,.072.072,0,0,1,.034.087c-.018.07-.17.065-.266.083-.052.009-.113.013-.112.042,0,.052.344-.007.378-.005.026.021.05.042.044.083-.015.1-.238.07-.31.121-.008.045.042.031.068.029a2.043,2.043,0,0,0,.227-.032c.036.018.045.063.049.115-.024.034-.456.1-.451.131s.112.013.13.01c.114-.016.215-.04.326-.053a.113.113,0,0,1,.039.117c-.01.02-.269.081-.287.12.013.026.055.018.078.016.13-.011.282-.105.282.083a4.52,4.52,0,0,1-.438.12c.026.05.1.029.146.024.1-.011.212-.042.326-.049.029.023.081.07.066.107s-.482.089-.483.14c.03.021.078,0,.12,0,.088-.008.36-.065.392-.059s.079.088.068.114-.05.023-.076.027c-.1.023-.24.063-.375.083-.019,0-.06,0-.063.031.02.028.065.009.092.008.094-.006.517-.107.543.024a1.513,1.513,0,0,1-.421.122c-.02,0-.06,0-.063.029a3.479,3.479,0,0,0,.557-.078c.024,0,.122.076.112.117s-.125.042-.16.048c-.18.031-.35.072-.534.091,0,.02.016.026.019.046.206-.011.414-.072.636-.088.108-.008.212-.034.258.063-.078.052-.688.152-.747.2.011.04.071.024.1.021.186-.029.386-.062.572-.109a.761.761,0,0,1,.222-.047c.033,0,.26.057.156.105-.083.04-.841.193-.877.2s-.084,0-.084.044a10.561,10.561,0,0,0,1.222-.238c.039,0,.2.015.3.01a6.326,6.326,0,0,1-1.145.329.389.389,0,0,1,.015.058,7.131,7.131,0,0,0,1.286-.377,4.816,4.816,0,0,0,.974-.611,9.081,9.081,0,0,0,1.65-1.8c.29-.388.425-.613.425-.613a.484.484,0,0,1-.048.256c-.033.1-.219.593-.271.693s-.169.321-.222.423-.173.285-.248.4a12.808,12.808,0,0,1-1.144,1.435c-.186.149-.263.243-.713.577a6.477,6.477,0,0,1-3,.87c-.392.011-.441.017-.6.02-.045,0-.044-.112-.015-.131a3.265,3.265,0,0,0,.665-.06c0-.053-.512-.029-.658-.032-.029-.013-.031-.128,0-.14.131.01.46-.009.47-.078,0-.039-.329,0-.477-.015a.079.079,0,0,1,.021-.128c.053,0,.082,0,.125,0,.07,0,.465-.037.465-.081a5.5,5.5,0,0,0-.608-.021c-.034-.024-.023-.127.013-.153a2.777,2.777,0,0,0,.57-.075,4.328,4.328,0,0,0-.563,0,.094.094,0,0,1,0-.154c.021-.008.561-.006.563-.068s-.611.039-.606-.075c0-.079.491-.076.491-.125s-.295.006-.459,0c-.05-.015-.05-.127,0-.146.177,0,.49.011.49-.039s-.379-.052-.49-.039c-.036-.018-.031-.078-.006-.115.032-.053.46.023.473-.041s-.379-.045-.495-.062Zm0-2.726c.162-.024.371-.024.541-.041.151-.016.336-.045.491-.063.07-.008.159-.055.193,0-.039.079-.157.1-.251.11a7.505,7.505,0,0,1-.974.06m1.341-.238a5.237,5.237,0,0,0,.292,1.991,1.434,1.434,0,0,0,1.545,1.043,3.147,3.147,0,0,0,1.189-.723c.026-.04-.088.015-.088.015-.579.126-.73-.206-.713-.315.009-.065.092-.1.1-.16a.164.164,0,0,0-.107-.149.327.327,0,0,0-.243.057,2.343,2.343,0,0,1-.446.136,1.324,1.324,0,0,1-.416.053c-.063-.015-.122-.121-.127-.178a.7.7,0,0,1,.015-.156c.008-.13-.039-.166-.1-.248a.969.969,0,0,0-.117-.141c-.063-.023-.16-.016-.2-.049a.423.423,0,0,1,0-.212,3.29,3.29,0,0,0-.58-.963m2.263,1.582a3.057,3.057,0,0,1,.5-.378c.037-.016.116.158.136.19a2.628,2.628,0,0,1-.477.375,1.469,1.469,0,0,0-.159-.187m2.752-1.263c0-.008.037-.05.024.044a6.606,6.606,0,0,1-.543,1.324c-.107.211-.841,1.239-.889,1.278s-.556.613-.775.783a6.886,6.886,0,0,1-.75.508,7.15,7.15,0,0,1-1.757.6,6.281,6.281,0,0,1-1.667.066c0-.034.079-.023.107-.026.276-.016,1.031-.039,1.182-.065s.571-.084.733-.125.679-.209.863-.282a6.517,6.517,0,0,0,.747-.4c.193-.123.5-.376.645-.495a15.484,15.484,0,0,0,1.071-1.218c.161-.222.615-.989.65-1.068s.256-.611.358-.931m-6.224,6.849a.255.255,0,0,1-.133-.04c.01-.044.125-.05.177-.053a.636.636,0,0,1-.044.094m.092-.177c-.055-.008-.221-.011-.225-.058,0-.031.248-.066.3-.071a1.452,1.452,0,0,1-.073.129m.1-.188c-.024.007-.327-.008-.327-.089,0-.057.368-.066.434-.057a.959.959,0,0,0-.107.146m.175-.214c-.125.008-.629.009-.478-.131a4.857,4.857,0,0,0,.618-.037c-.042.029-.112.149-.14.169m.227-.242a1.38,1.38,0,0,1-.529.02c-.071,0-.2.011-.2-.047s.319-.073.4-.081a1.565,1.565,0,0,0,.494-.057,1.036,1.036,0,0,0-.165.165m.292-.238a1.7,1.7,0,0,1-.6.059c-.028,0-.418.006-.425-.042a5.2,5.2,0,0,1,.992-.138c.076-.011.185-.037.271-.047-.029.026-.182.133-.241.169m.368-.241c-.041.013-.313.045-.388.052-.024,0-.512.048-.645.048-.089,0-.35,0-.357-.047-.013-.081.306-.078.449-.092a6.85,6.85,0,0,0,1.318-.166c-.092.053-.35.195-.378.2m1.709-.712a7.426,7.426,0,0,1-1.393.459c-.073.009-.133.026-.227.034-.06,0-.4.066-.5.078a6.721,6.721,0,0,1-.932.024c-.042-.034-.1-.107.086-.115.128,0,.295.007.429,0a3.788,3.788,0,0,0,.863-.131c-.193-.016-.924.089-1.086.063-.024-.005-.339.015-.334-.068,0-.06.078-.057.134-.059s.491-.008.67-.032c0,0,.05,0,.049-.026s0-.018-.049-.02c-.066,0-.428.026-.577.01-.022,0-.219.015-.227-.039-.015-.091.112-.088.193-.088a6.5,6.5,0,0,0,1.1-.083c.063-.008.553-.091.679-.134.031-.01.075-.007.068-.053a11.377,11.377,0,0,1-1.887.17c-.055,0-.149,0-.149-.036s.151-.055.183-.057c.138-.008.55-.023.577-.024.169-.01.5-.05.925-.121a3.444,3.444,0,0,0,.708-.164,7.2,7.2,0,0,0,1.106-.447,5.386,5.386,0,0,0,1.61-1.427,9.531,9.531,0,0,0,.971-1.547c.092-.146.14-.335.229-.484h.022a.372.372,0,0,1-.022.175A5.447,5.447,0,0,1,392.223,94c-.037.076-.337.515-.377.577a1.8,1.8,0,0,0-.2.3c.057,0,.136-.1.179-.162s.283-.379.384-.554.323-.632.37-.725.023-.088.073-.092a.228.228,0,0,1-.016.146,2.212,2.212,0,0,1-.168.392,3.652,3.652,0,0,0-.36.651c.031-.009.334-.5.365-.515a1.384,1.384,0,0,1-.17.485,12.966,12.966,0,0,1-.781,1.044,1.651,1.651,0,0,0-.2.242c.03-.007.047-.031.073-.049a8.051,8.051,0,0,0,.809-.935,4.285,4.285,0,0,1-.49.755,6.32,6.32,0,0,1-2.235,1.55m2.375-.965c-.057-.049-.114-.1-.16-.141l-.02-.031c-.01-.024,0-.036.091-.144a5.856,5.856,0,0,0,1.111-3.884c0-.055-.037-.195-.063-.193s-.081.089-.105.11-1.033,1.386-1.19,1.553-.135.154-.234.188a3.762,3.762,0,0,0-.178-.538.313.313,0,0,1-.039-.11c0-.039.073-.084.126-.121a7.8,7.8,0,0,0,1.74-1.926s0,0,0,0c.026.091.037.169.068.281a4.7,4.7,0,0,1,.131,1.425,5.723,5.723,0,0,1-.6,2.561c-.047.089-.221.394-.3.514a3.676,3.676,0,0,1-.248.363c-.031.039-.079.1-.1.1s-.036,0-.036,0m-.987-2.746c.069-.05.144-.128.2-.023a1.827,1.827,0,0,0-.253.246,1.682,1.682,0,0,0,.311-.141.479.479,0,0,0,.015.068c-.081.117-.2.195-.287.307a.3.3,0,0,0,.17-.053.694.694,0,0,0,.083-.059.361.361,0,0,1-.049.117.693.693,0,0,1-.854.31c-.057-.029-.147-.109-.144-.156a8.658,8.658,0,0,1,.809-.616m-.073-.741a.85.85,0,0,1-.149.207c-.075.072-.955.712-1.093.778a.589.589,0,0,1-.232.061c.006-.04,1.381-1.06,1.512-1.149h0c.033.031-.024.07-.042.1m.243-.538c.094.042-.039.116-.092.155-.66.482-1.3.966-1.965,1.446-.034.024-.089.1-.144.047.011-.049,2.112-1.6,2.2-1.648m-.131-.073h.006c.016.031-.024.052-.04.063-.508.373-1.842,1.368-2,1.485-.017.01-.036.045-.063.028,0-.058.058-.1.1-.125.216-.162,1.91-1.387,2-1.451m.532-3.776a.92.92,0,0,1,.478-.2.861.861,0,0,1,.754.405,1.355,1.355,0,0,1,.289.6.423.423,0,0,1,.007.063c0,.08-.246-.015-.378-.015a1.306,1.306,0,0,0-.694.366c-.127.109-.43.389-.606.538a8.044,8.044,0,0,1-4.966,1.892,7.905,7.905,0,0,1-5.491-2.394,1.359,1.359,0,0,0-.728-.4c-.131,0-.378.094-.378.015a.268.268,0,0,1,.008-.063,1.377,1.377,0,0,1,.287-.6.864.864,0,0,1,.754-.405.929.929,0,0,1,.48.2c.313.214,2.385,2.252,4.992,2.252a8.334,8.334,0,0,0,5.129-2.216l.055-.039M388.877,89.5c.006.044-.195.1-.234.117a4.608,4.608,0,0,1-.514.185,2.4,2.4,0,0,1-.334.083c-.151.02-.3.073-.455.091v.041a5.954,5.954,0,0,0,1.2-.272,1.1,1.1,0,0,0,.272-.083c.047-.019.111-.052.141,0-.019.062-.1.079-.151.1s-.12.053-.179.073a3.941,3.941,0,0,1-.375.131c-.129.036-.267.066-.4.1-.1.028-.2.047-.311.068-.026.005-.078,0-.073.049a8.708,8.708,0,0,0,.874-.169c.005.034-.034.031-.048.037a4.137,4.137,0,0,1-.809.237,6.255,6.255,0,0,1-.83.128,6.065,6.065,0,0,1-1.193-.039c-.094-.015-.589-.117-.762-.175-.072-.024-.843-.329-1.023-.412.006-.031.052-.062.068-.1a6.561,6.561,0,0,0,.776.185,4.182,4.182,0,0,0-.7-.258c-.008-.015.036-.06.049-.088a11.884,11.884,0,0,0,2.245.359,7.053,7.053,0,0,0,.984-.047c.186-.019.368-.058.548-.084.089-.011.18-.028.268-.047.1-.023.195-.04.3-.068s.217-.078.324-.105c.024-.007.045,0,.065-.011s.042-.021.068-.029.065-.013.091-.023.112,0,.117.023m-3.494.177a.1.1,0,0,1,.1-.083,2.691,2.691,0,0,1,.339.068c0,.046-.007.086-.039.1-.134,0-.352-.04-.37-.042s-.026-.007-.029-.036m.131-.128a.138.138,0,0,1-.092-.06c-.013-.02,0-.047.005-.063.021-.05.389,0,.4.041a.109.109,0,0,1,0,.079c-.011.034-.253.015-.316,0m.363-.386c-.089.044-.256-.01-.363-.015-.035-.007-.042-.1.015-.091.073.006.292.008.335.022s.015.065.013.083m.01.306c.006-.081.011-.136.019-.217s.011-.151.053-.167c.1-.033.075.1.063.195s-.013.143-.019.228c-.005.068-.01.25-.068.261-.13.028-.057-.19-.049-.3m-.383-.267c.05.008.335.009.36.065,0,.053-.011.092-.044.11-.057.006-.365-.042-.37-.078,0-.013.011-.1.053-.1m1,.452c.018.005.053.021.06.044.027.1-.044.091-.138.093-.062,0-.146-.008-.2-.011s-.1.006-.112-.034,0-.078.023-.089a1.839,1.839,0,0,1,.365,0m-.314-.248c-.034-.015-.031-.074-.024-.112a.759.759,0,0,1,.383,0c.021.026.013.052,0,.087a.823.823,0,0,1-.353.024m.266.034c.024-.005.112.024.112.088a.114.114,0,0,1-.028.068.751.751,0,0,1-.213.006c-.029,0-.157-.008-.178-.031s0-.1.026-.117.087-.008.117-.01.139,0,.164,0m.172-.375c.036,0,.041.094.047.156a4.434,4.434,0,0,1,.044.511c-.018.109-.11.015-.117-.191s-.083-.469.026-.475m-.413.024a.879.879,0,0,1,.319.007c.031.018.013.094-.024.11s-.309.011-.329-.044a.054.054,0,0,1,.034-.073m1.9-.136c-.057.019-.146.053-.152-.013s.151-.1.211-.115l.053-.011a.033.033,0,0,1,.037.031c0,.031-.077.085-.149.109m.211.011a.518.518,0,0,1,.029.084c.008.037-.233.13-.266.121a.107.107,0,0,1-.063-.1c0-.028.052-.037.114-.062.078-.028.13-.083.186-.044m-.454.475c-.029-.079-.055-.154-.081-.224a1.244,1.244,0,0,1-.06-.147c-.011-.042-.033-.162.057-.11a.49.49,0,0,1,.068.138c.042.105.068.191.11.3.024.058.107.186,0,.193-.039,0-.037-.008-.06-.04a.406.406,0,0,1-.037-.109m-.251.238c-.039-.011-.042-.079-.026-.1a.978.978,0,0,1,.234-.063c.021,0,.072.1.033.107a.623.623,0,0,1-.24.055m-.057-.156a.137.137,0,0,1-.05-.1c0-.052.161-.065.256-.086a.127.127,0,0,1,.04.134.593.593,0,0,1-.247.053m.157-.35c.01.041.031.073,0,.092a.369.369,0,0,1-.073.036.349.349,0,0,1-.131.026c-.023,0-.081-.089-.059-.126s.143-.052.2-.068c.034-.008.045.029.06.041m-.257-.046c-.021.01-.055-.049-.059-.065s.23-.125.251-.036-.172.088-.193.1m-.213.2c-.015-.071-.034-.141-.045-.212,0-.031-.026-.085.021-.092.063-.011.073.12.089.18.036.142.086.337.11.473-.018.044-.083.032-.107,0-.007-.041-.068-.352-.068-.352m.011.407a1.124,1.124,0,0,1-.344.039c-.041-.006-.045-.055-.044-.065,0-.034.031-.034.066-.045a1.218,1.218,0,0,1,.309-.026c.02.016.026.092.011.1m-.334-.121c-.055-.008-.066-.073-.071-.107s.151-.052.177-.059.169-.032.177.028.027.1-.008.1-.31.036-.274.036m.279-.279c0,.042-.1.045-.154.053s-.156.029-.183.009-.058-.1-.008-.126a.56.56,0,0,1,.1-.024c.085-.007.17-.039.214-.01.021.015.028.041.033.1m-.058-.174a1.059,1.059,0,0,1-.2.033c-.032,0-.107.024-.117-.013-.037-.141.253-.136.281-.128s.058.1.039.109m1.052.323c0-.049.073-.071.126-.1a.628.628,0,0,1,.162-.078.066.066,0,0,1,.06.052c0,.047-.087.076-.131.094a.666.666,0,0,1-.169.062c-.037,0-.037-.018-.048-.034m.17-.5c-.034-.052-.062-.114-.091-.162s.058-.113.147.052c.058.11.112.183.172.281.029.047.13.182.04.2-.045.011-.071-.039-.089-.068s-.18-.3-.18-.3m.065.276a.559.559,0,0,1-.272.092.072.072,0,0,1-.053-.078c0-.042.07-.052.128-.076.076-.031.141-.068.18-.031a.084.084,0,0,1,.018.092m.136-1.688c-.235,0-.177-.028-.18-.073s.088-.065.141-.092c.018-.01.123-.05.159-.063a1.28,1.28,0,0,0,.17-.083.141.141,0,0,0,.073-.073c-.078.018-.26.071-.277.073-.107,0-.4.12-.441.112-.058-.076.047-.193.117-.189.53.022.888-.305,1.412-.738h.008c.019.076-.765,1.127-1.182,1.127m1.978-.5c-.06.041-.146.05-.209.085.057.151-.146.149-.266.169-.013.013-.009.042-.009.068-.109.149-.35.037-.514.029,0,.05.125.024.126.088s-.13.07-.2.063c-.1-.01-.2-.086-.258-.068,0,.015.052.029.049.068-.055.071-.31.048-.315-.046,0-.053.332-.151.417-.164a2.835,2.835,0,0,0,.387-.107,1.929,1.929,0,0,0,.394-.169.817.817,0,0,0,.17-.114c-.044-.008-.062.029-.1.041a5.443,5.443,0,0,1-.718.224c-.031,0-.089-.044-.093-.065s.156-.189.156-.189a10.479,10.479,0,0,0,1.169-.485c.062-.033.224-.153.242-.091a1.817,1.817,0,0,1-.421.663M392.8,85.7a.922.922,0,0,0-.087.13c-.034.1-.124.12-.208.177.042.159-.13.18-.234.227.007.026.04.026.044.053.005.044-.295.175-.326.2-.005.031.021.034.016.068a.293.293,0,0,1-.107.1c-.07.028-.167-.01-.219.045,0,.026.026.028.024.057-.078.141-.347.094-.528.093.031.053.169.013.175.083,0,.048-.1.086-.156.092-.1.011-.277-.018-.287-.01.162.068-.131.156-.2.083.021-.045.159-.227.18-.263a.789.789,0,0,0,.144-.048,3.346,3.346,0,0,0,.373-.169,5.08,5.08,0,0,0,.52-.282,9.087,9.087,0,0,1-.927.329.576.576,0,0,1,.088-.155c.047-.078.1-.172.214-.183.024,0,.323-.127.4-.161.041-.018.927-.549.974-.572s.134-.083.2-.039a.217.217,0,0,1-.073.146m.689-1.475c.028.083-.342.574-.485.723.013.029.039.021.044.053s-.07.1-.117.149a5.784,5.784,0,0,1-1.558,1.034c-.182.042-.172.006-.188-.024-.04-.076.128-.243.222-.29s.945-.524,1.044-.621c0-.005,0-.005,0-.01-.078.015-.415.2-.511.238s-.209.034-.183,0,.778-.553.877-.621.747-.572.85-.632m.383-1.576c.014.052,0,.05-.019.136a5.253,5.253,0,0,1-.592,1.192,8.523,8.523,0,0,1-1.73,1.413,3.344,3.344,0,0,0,.415-.647,3.8,3.8,0,0,0,1.257-1.067,6.116,6.116,0,0,1-1.047.776,1.031,1.031,0,0,1,.224-.475c.033-.029.376-.247.538-.392s.718-.809.782-.85.1-.1.173-.087m-.5.243c-.073.1-.762.979-1.2.971-.062,0,.079-.243.079-.243a6.515,6.515,0,0,0,.734-.647,1.316,1.316,0,0,0,.274-.368,6.055,6.055,0,0,0-.55.459c-.06.037-.3.24-.344.19a1.946,1.946,0,0,1,.191-.608c.026-.044.112-.151.149-.118s-.081.23-.047.238c.053.015.2-.327.217-.374a.127.127,0,0,1,.126-.057c.04,0-.04.215.031.134s.155-.331.259-.31c.059.013-.021.125-.029.185.216-.327.327-.379.36-.383s-.016.105-.005.115.053-.047.1-.134a.849.849,0,0,1,.428-.36,7.468,7.468,0,0,1-.767,1.31m-13.585,2.67c.065-.042.138.011.2.041s.935.554.974.57c.076.036.373.159.4.16.116.011.167.107.214.185a.533.533,0,0,1,.087.156,9.681,9.681,0,0,1-.927-.331,4.8,4.8,0,0,0,.519.282,3.186,3.186,0,0,0,.375.169.65.65,0,0,0,.146.049c.019.036.157.219.178.263-.066.073-.362-.013-.2-.083-.008-.007-.183.021-.285.009-.052,0-.159-.044-.154-.092,0-.07.141-.028.173-.083-.182,0-.451.049-.528-.091,0-.029.024-.031.024-.06-.052-.052-.149-.017-.219-.042a.256.256,0,0,1-.105-.1c-.007-.031.018-.034.013-.066-.029-.028-.329-.16-.324-.2,0-.026.039-.026.044-.053-.1-.045-.276-.066-.234-.227-.084-.057-.173-.076-.208-.175a.8.8,0,0,0-.088-.131.223.223,0,0,1-.073-.146m.234-.7c.1.07.853.587.877.62s-.09.037-.185,0-.431-.221-.509-.237a.028.028,0,0,1,0,.01,11.792,11.792,0,0,0,1.042.621c.094.047.264.214.224.29-.016.031,0,.065-.19.026a5.825,5.825,0,0,1-1.556-1.034c-.047-.05-.12-.112-.116-.149s.031-.026.044-.055c-.141-.147-.428-.509-.4-.592.1.059.67.434.765.5m-1.059-2.062c.062.04.619.7.782.85s.506.363.538.392a1.035,1.035,0,0,1,.224.475,6.251,6.251,0,0,1-1.049-.776,3.843,3.843,0,0,0,1.256,1.067,3.375,3.375,0,0,0,.418.645,8.416,8.416,0,0,1-1.731-1.412,5.288,5.288,0,0,1-.592-1.193c-.019-.085-.034-.083-.019-.134.076-.015.112.048.173.087m10.918-.677a3.468,3.468,0,0,1,.321.209c.023.015.195.116.143.167-.036.033-.1-.048-.128-.07-.11-.1-.225-.2-.34-.292a.012.012,0,0,1-.01-.015Zm.216-.073c.007,0,.01,0,.01.005a.5.5,0,0,1,.16.1c.05.036.105.066.153.1.013.011.1.081.086.117-.016.057-.092-.01-.113-.029a4.159,4.159,0,0,1-.3-.3m-.347-.668s.008,0,.015,0a.3.3,0,0,1,.053.016c.034.02.081.046.088.088-.068.016-.13-.049-.156-.1m.657.7a.1.1,0,0,0,0-.021c.073.024.206.115.221.185-.046.045-.094-.024-.125-.053a.8.8,0,0,1-.1-.11m-.817-.344c.049.021.1.037.122.088-.046,0-.135-.031-.122-.088m-.219.465c.066-.026.118.035.121.1-.058-.018-.115-.036-.121-.1m.2.773s.005,0,.01,0c.086.033.206.076.23.183-.063.029-.185-.094-.144-.058s-.089-.072-.1-.122m-.574-.172a.288.288,0,0,1,.193.149c-.042-.015-.251-.086-.193-.149m.493.333.049.018c.057.027.143.085.147.162-.068.019-.117-.026-.167-.07-.019-.019-.105-.1-.029-.11m-.041-.483c-.1-.013-.164-.1-.24-.146v-.02h.009c.049.015.22.115.23.166m-.323.511a.518.518,0,0,1-.251-.147c.04-.065.135.009.183.052a.256.256,0,0,1,.068.1m-.032-.488a.036.036,0,0,1,.011-.033c.089.04.186.073.222.164a.909.909,0,0,1-.233-.131m-6.979,13.076c-.136-.115-.263-.232-.387-.349-.1-.092-.182-.182-.272-.28-.029-.034-.156-.153-.156-.2,0,0,.572.572.65.644.118.11.267.2.394.311l.319.2a2.3,2.3,0,0,1,.363.232,1.614,1.614,0,0,1-.48-.251,5,5,0,0,1-.431-.306m3.066-5.606c.115.015.233.044.334.058v.029a2.477,2.477,0,0,1-.426-.048c-.143-.015-.392-.046-.384-.083s.019-.024.044-.024c.126.013.277.05.433.068m-.5-.258c.021-.037.134.01.149.01s.574.076.786.112c-.008.008,0,.029,0,.044a7.1,7.1,0,0,1-.757-.092c-.023-.005-.17-.008-.173-.073m1.188-1.29c-.012.06-.387.011-.442,0V88.58a1.9,1.9,0,0,1,.319,0c.045.009.131-.024.123.028m-.117.2c-.008.04-.37.01-.476,0,0-.021-.011-.023-.01-.044a2.617,2.617,0,0,1,.486.048m.261-.42a2.162,2.162,0,0,1-.563.008c-.009-.042.033-.026.073-.024.12,0,.489-.024.489.016m-2.4,8.777c0,.029-.183-.018-.332-.076a4.9,4.9,0,0,1-.467-.221c-.1-.05-.377-.215-.553-.329a4.588,4.588,0,0,1-.377-.287.014.014,0,0,1-.011-.015c.243.144,1.457.8,1.655.869.029.01.091.028.086.059m1.795-9.853c-.225,0-.5.013-.7.008-.011-.047.039-.036.068-.039a2.409,2.409,0,0,1,.631.031m-2.514-4.33c-.037.029-.083.081-.143.07,0-.06.055-.1.105-.136s.086-.07.143-.045c-.011.053-.067.081-.105.112m.51-.386c-.047.036-.084.078-.146.078a.221.221,0,0,1,.1-.092c.039-.026.081-.047.116-.07l.02,0c0,.037-.052.063-.086.086m.193.062c.013,0,.018.015.016.032a.885.885,0,0,1-.228.138c.026-.079.13-.127.212-.17m-.566.483c-.039.037-.083.087-.153.074-.006-.076.07-.112.13-.147.039-.021.07-.057.105-.028a.326.326,0,0,1-.083.1m-.282,1.028c.02-.068.034-.2.094-.258.039.05-.031.333-.034.363s-.092.556-.1.619-.006.427-.006.476.04.105-.015.109c-.016-.021-.011-.023-.034-.083a2.37,2.37,0,0,1,.01-.747c.019-.131.065-.412.086-.48m.952-1.352c.094.032-.11.147-.175.147.029-.075.107-.109.175-.147m-1.527.783a.032.032,0,0,0,.006.009l0,0Zm.823-.234c0-.044.031-.052.039-.086.05-.026.128-.107.188-.065-.039.078-.125.177-.227.151m-.016-1.509c.01-.055.076-.062.112-.094.006,0,.006.008.015.009-.013.054-.07.07-.127.085m.8,1.143a.05.05,0,0,1,.055.016c.016.042-.074.078-.1.1-.05.028-.073.059-.133.066.011-.076.127-.147.178-.178m-.569-.673c-.033-.059.105-.156.122-.089.008.039-.084.075-.122.089m-.433-.825c.008-.029.1-.079.151-.088a.165.165,0,0,1-.149.11c0-.008,0-.017,0-.023m2.116.206a.015.015,0,0,1,.01-.017,2.836,2.836,0,0,1,.611.024c-.008.053-.358.044-.465.039-.065,0-.131-.01-.156-.047m-.853,4.278c0-.032.028-.034.047-.037a3.637,3.637,0,0,1,.4-.01v.024a1.7,1.7,0,0,1-.451.022m1.008,1.13c-.123.005-.482.049-.485.01s.423-.062.436-.058.042.044.049.048m-1.1-1.323c0-.04.042-.034.073-.039.1-.011.443-.015.438.024a1.013,1.013,0,0,1-.511.015m.243.576c.008-.049.394-.052.491-.068a.181.181,0,0,1,.023.05,2.12,2.12,0,0,1-.514.018m-.086-.213a1.21,1.21,0,0,1,.488-.053.044.044,0,0,0,.016.039c-.123.008-.486.072-.5.015m.353.782c.016-.062.488-.081.645-.053a.267.267,0,0,1-.156.037c-.076,0-.443.073-.49.016m-.175-.378a1.8,1.8,0,0,1,.616-.058v.018a1.6,1.6,0,0,1-.616.04m.1.193c.026-.053.389-.055.475-.068a.431.431,0,0,0,.015.048c-.123,0-.454.066-.489.02m1.378,10.257a3.687,3.687,0,0,1-.8-.092v-.01c0-.006,0-.008.01-.008.266.013.569.065.853.052.07,0,.144-.005.209-.005s.121-.011.156.029c-.023.047-.329.037-.431.034m-1.083-.151c-.021.026-.061.008-.087,0-.092-.011-.391-.086-.451-.1a4.954,4.954,0,0,1-.97-.365v-.009c0-.01.005-.01.005-.005.16.044.69.25.887.307a3.822,3.822,0,0,1,.616.169m.068-14.963V81.88a.036.036,0,0,1,.015-.01,1.67,1.67,0,0,1,.394.024c-.007.055-.363.029-.409,0m-.073.209v-.031c.1,0,.224,0,.326.005V82.1a.672.672,0,0,1-.326,0m.167,9.869c-.063.117-.007,0-.078.117-.017.03-.579-.194-.6-.17,0,.007.016.053.046.068.143.074.47.178.467.256a.136.136,0,0,1-.05.086c-.041.022-.632-.333-.657-.294a.164.164,0,0,0,.073.1,3.793,3.793,0,0,1,.512.308c.011.033,0,.039-.053.081-.02.016-.75-.43-.757-.418s-.014.026.01.055a4.725,4.725,0,0,1,.663.493c0,.028-.008.034-.036.052a6.9,6.9,0,0,0-.841-.5c-.034.036.687.478.789.593l-.06.083c-.258-.154-1.742-1.239-1.937-1.394a3.913,3.913,0,0,1,.274-.4,9.186,9.186,0,0,0,2.231.882m-2.665,2.421c-.005,0-.008-.013-.015-.013.521-.011.584-.28.563-.349s-.105-.11-.1-.16a.211.211,0,0,1,.214-.154.706.706,0,0,1,.315.13,1.461,1.461,0,0,0,.679.117.293.293,0,0,0,.131-.18c.011-.039-.031-.131-.015-.193a2.58,2.58,0,0,1,.208-.35c.028-.044.18.008.209-.044s-.006-.151,0-.2c.172-.25.362-.609.527-.866a9.261,9.261,0,0,1-.011,1.112,2.23,2.23,0,0,1-.3,1.1,1.1,1.1,0,0,1-1.17.616,2.862,2.862,0,0,1-1.244-.576m.365-.6a2.861,2.861,0,0,1-.477-.368,1.136,1.136,0,0,0,.122-.194,3.779,3.779,0,0,1,.514.373,1.98,1.98,0,0,0-.159.19m-.622-1a1.142,1.142,0,0,1-.086-.154.032.032,0,0,0,0-.015c.125.057,1.35,1,1.451,1.071.026.021.07.037.078.078a1.245,1.245,0,0,1-.336-.107,9.712,9.712,0,0,1-1.11-.874m-.1.674c.12.091.222.177.344.267a4.281,4.281,0,0,0,.353.258c.045.026.105.06.107.091,0,.047-.091.125-.146.156a.547.547,0,0,1-.49,0,1.543,1.543,0,0,1-.387-.4c.016,0,.039.018.063.028a.358.358,0,0,0,.16.06c0-.029-.034-.053-.055-.073-.062-.062-.135-.13-.2-.193.008-.028.008-.062.015-.088a.168.168,0,0,1,.063.023,2.176,2.176,0,0,0,.217.1,1.2,1.2,0,0,0-.251-.246c.047-.11.13-.036.2.018m6.355-1.613a9.929,9.929,0,0,0,1.91-.77c.1.128.149.214.237.355-.47.362-1.427,1.051-1.9,1.4a.083.083,0,0,1-.032-.076c0-.031.473-.352.512-.4a.58.58,0,0,0,.092-.133c-.02-.028-.634.452-.66.439a.115.115,0,0,1-.066-.087,6.077,6.077,0,0,1,.517-.414c.094-.079.029-.06.026-.061-.013-.02-.571.4-.6.387a.132.132,0,0,1-.065-.108,2.671,2.671,0,0,1,.409-.282c.091-.061.107-.109.1-.128s-.47.289-.53.3c-.034.008-.076-.079-.088-.1s.512-.269.475-.327c-.018-.031-.517.24-.537.209-.034-.055-.044-.074-.076-.126.015-.015.2-.052.285-.088m2.54.127c-.475.345-1.427,1.023-1.892,1.378-.024-.028-.073-.063-.07-.1a6.188,6.188,0,0,1,.67-.486l-.034-.042s-.676.464-.7.457-.034-.047-.053-.068c.465-.359,1.417-1.038,1.9-1.383.065.081.13.157.186.243m-.256-.495a.067.067,0,0,1,.063.011c-.026.05-1.493,1.1-1.974,1.464a.339.339,0,0,1-.134.083c-.029-.072.032-.115.068-.141.123-.1,1.89-1.386,1.978-1.417m-.478-.189c-.047.034-.084.076-.146.076a.221.221,0,0,1,.1-.092c.039-.026.079-.045.117-.071h.02c0,.037-.052.063-.086.088m.219.06c.143.049-.167.224-.267.225.045-.113.164-.164.267-.225m.324.514a.065.065,0,0,1,.081.024c.024.062-.112.117-.151.141-.074.044-.109.089-.2.1.016-.114.19-.222.268-.266m-7.992-.338c0-.153.266.089.3.183a.54.54,0,0,1-.3-.183m.256-.159c.047.034.1.055.122.112a.223.223,0,0,1-.122-.059c-.035-.028-.07-.058-.105-.086a.145.145,0,0,1-.006-.018c.035-.011.076.028.112.05m1.855-12.688a3.1,3.1,0,0,1,1.634-.434,2.968,2.968,0,0,1,1.163.212,2.428,2.428,0,0,1,1.49,2.573,5.16,5.16,0,0,0-.167-1.05,2.811,2.811,0,0,0-1.18-1.38,3.167,3.167,0,0,0-2.425-.091c-.242.107-.3.138-.436.209-.039.018-.109.073-.136.028-.016-.023.059-.066.059-.066m.214.154c-.031-.013-.085-.041-.075-.06a.166.166,0,0,1,.143-.092c.079,0,.173.17.232.282a1.4,1.4,0,0,1,.146.506c0,.062,0,.076-.028.076s-.063-.118-.073-.173a1.039,1.039,0,0,0-.345-.538m2.026,2.511a.252.252,0,1,1-.251-.238.246.246,0,0,1,.251.238m.337,1.98a.708.708,0,0,1,.154.459.778.778,0,0,1-.248.616,1.1,1.1,0,0,1-.728.27.943.943,0,0,1-1.023-.887.8.8,0,0,1,.311-.608c.065-.031.219-.146.3-.066.039.036-.136.131-.136.131a.7.7,0,0,0-.3.543c-.016.387.318.679.837.684.541,0,.848-.3.848-.684a.645.645,0,0,0-.19-.444c-.1-.079-.258-.17-.2-.2a.53.53,0,0,1,.379.185m-.245-1.976a.352.352,0,1,1-.35-.35.323.323,0,0,1,.35.35m-.17,0a.175.175,0,1,1-.173-.159.166.166,0,0,1,.173.159m-.322,3.544a.083.083,0,0,1-.165,0,.083.083,0,0,1,.165,0m-1.689-1.6c.039.005.018.066.01.088,0,.118-.021.235-.015.373s.022.291.034.438a2.842,2.842,0,0,0,.05.41c.034.16.091.282.062.316-.039-.011-.1-.2-.112-.271a6.861,6.861,0,0,1-.083-.752.3.3,0,0,0-.019-.151.289.289,0,0,0-.2.024,1.439,1.439,0,0,0,.034.241,2.946,2.946,0,0,1-.01.72c0,.018-.018.144-.049.159-.037-.008-.024-.11-.011-.17s.007-.428.011-.54a2.936,2.936,0,0,0-.107-.644c-.01-.031-.05-.156-.015-.159s.036.115.094.136a1.438,1.438,0,0,0,.271-.04c.039-.01.019-.183.058-.178m-.1.252c.034,0,.039.037.034.068-.009.07-.217.078-.228.073s-.046-.055-.034-.083c.029-.063.195-.062.229-.058m.193,1.679a.18.18,0,1,1-.18-.167.175.175,0,0,1,.18.167m.1.021a.258.258,0,1,1-.258-.251.255.255,0,0,1,.258.251m-.068-2.18a4.407,4.407,0,0,0-.037,1.153,4.106,4.106,0,0,0,.16.7c.027.1.172.464.169.491a2.844,2.844,0,0,1-.46.357,3.361,3.361,0,0,1-.465-.366c.02-.159.073-.227.112-.465a3.184,3.184,0,0,0-.033-1.133,4.091,4.091,0,0,0-.2-.653c.248-.026.5-.078.755-.083m3.032.407a1.426,1.426,0,0,0,.272.04c.057-.021.055-.138.092-.136s0,.128-.015.159a2.937,2.937,0,0,0-.107.644c0,.112,0,.48.011.54s.026.162-.011.17c-.031-.015-.046-.141-.049-.159a2.877,2.877,0,0,1-.008-.72,1.63,1.63,0,0,0,.032-.241.288.288,0,0,0-.2-.024.281.281,0,0,0-.02.151,6.855,6.855,0,0,1-.083.752c-.01.066-.073.259-.112.271-.029-.034.028-.156.062-.316a2.834,2.834,0,0,0,.05-.41c.013-.147.028-.3.034-.438s-.011-.254-.015-.373c-.008-.021-.029-.083.01-.088s.019.169.059.178m.267.131c.011.028-.024.079-.034.083s-.219,0-.228-.073c0-.031,0-.063.034-.068s.2-.005.229.058m-.242,1.454a.169.169,0,1,1-.18.167.174.174,0,0,1,.18-.167m-.019-.063a.252.252,0,1,1-.258.251.254.254,0,0,1,.258-.251m-.19-1.929c.254,0,.507.057.755.083a5.294,5.294,0,0,0-.219.686,4.672,4.672,0,0,0-.015,1.1c.017.146.092.307.112.465a3.364,3.364,0,0,1-.465.366,2.845,2.845,0,0,1-.46-.357c0-.028.141-.389.169-.491a4.107,4.107,0,0,0,.16-.7,4.4,4.4,0,0,0-.037-1.153m-2.9,6.371a1.442,1.442,0,0,0,.285.042c.007,0,.063-.079.037-.125s-.263-.062-.331-.066-.083.094-.083.1c0,.028.044.026.091.045m-.02.2a2.194,2.194,0,0,0,.238.028c.046,0,.05-.034.06-.079s-.044-.058-.049-.061-.238-.039-.289-.046-.06.01-.063.021l-.019.065c-.011.047.121.073.121.073m3.3-7.895c-.033.039-.015.1-.015.156a1.192,1.192,0,0,0,.068.4c.011.036.022.073.034.107s.008.085.044.1c.07-.046.087-.138.12-.214a3.512,3.512,0,0,0,.335-1.378,2.554,2.554,0,0,0-.25-1.2,2.336,2.336,0,0,0-2.3-1.238,2.837,2.837,0,0,0-1.063.251c.091.172.172.344.208.433a1.558,1.558,0,0,1,.07.342.9.9,0,0,1,.138-.066.96.96,0,0,0,.037-.326c0-.139-.121-.224-.17-.309s.091-.2.188-.191.156.162.18.311a1.6,1.6,0,0,1-.057.451,1.641,1.641,0,0,1,.17-.042,2.854,2.854,0,0,0,.141-.321c.039-.133-.053-.247-.076-.344s.142-.162.235-.129.1.2.085.348a1.677,1.677,0,0,1-.167.415h0a1.311,1.311,0,0,1,.143-.007h.036a1.125,1.125,0,0,0,.191-.283c.066-.122,0-.252,0-.352s.172-.13.256-.078.062.215.011.358a1.578,1.578,0,0,1-.251.371c.05.008.1.017.149.028a1.157,1.157,0,0,0,.243-.248c.086-.109.042-.25.059-.35s.191-.1.264-.031.024.224-.049.355a1.731,1.731,0,0,1-.324.327c.052.018.1.037.153.06a1.171,1.171,0,0,0,.287-.186c.107-.088.1-.235.134-.327s.208-.052.266.028-.027.224-.128.336a1.6,1.6,0,0,1-.384.241,1.287,1.287,0,0,1,.128.081,1.331,1.331,0,0,0,.349-.134c.123-.062.144-.208.2-.289s.214-.006.253.083-.074.213-.2.3a1.76,1.76,0,0,1-.438.17c.044.039.086.079.128.123h0a1.736,1.736,0,0,0,.323-.048c.136-.029.19-.166.266-.232s.209.047.225.144-.123.186-.264.242a1.376,1.376,0,0,1-.413.048c.037.049.073.1.107.149a1.331,1.331,0,0,0,.243.009c.139,0,.222-.12.309-.168s.195.089.19.188-.16.154-.309.18a.969.969,0,0,1-.329-.029c.031.059.058.118.084.182a1.359,1.359,0,0,0,.185.029c.118.015.2-.078.284-.11s.154.1.139.18-.154.117-.284.12a.751.751,0,0,1-.266-.06c.016.053.031.107.044.162a1.161,1.161,0,0,0,.134.05c.111.042.214-.029.3-.044s.128.131.1.209-.175.078-.3.052a.614.614,0,0,1-.191-.084l0-.005c.009.06.014.118.019.177.021.013.044.024.065.035.1.059.221,0,.308,0s.1.156.055.232-.191.057-.313.013a.479.479,0,0,1-.11-.062.994.994,0,0,1-.007.12.133.133,0,0,1,.018.013c.1.073.209.04.292.057s.089.159.039.216-.183.011-.3-.052a.316.316,0,0,1-.073-.052m-1.587,6.33h-.35v-.579h.35Zm-.075-.074h-.16v-.373h.16Zm.175.16h-.587v-.764h.587Zm-.661.065h.731v-.159c.321-.029.681-.036,1.018-.05.086-.005.18,0,.258-.01h0c.018.049-.065.044-.107.049a6.091,6.091,0,0,0-.937.105c.323.027,1.119-.05,1.12-.005s-.1.05-.154.059c-.17.031-.374.052-.534.092v.036c.2,0,.691-.067.714-.065a.07.07,0,0,1,.052.068,6.3,6.3,0,0,1-.814.156c-.024,0-.072,0-.059.044a5.957,5.957,0,0,0,.828-.058c.059-.008.138-.017.141.034a4.044,4.044,0,0,1-1.038.195v.047c.315-.026.673-.062.984-.105.046-.007.1-.039.136,0-.008.058-.081.066-.126.083a5.32,5.32,0,0,1-.931.173c-.11.017-.225.028-.34.039a8.482,8.482,0,0,1-1.722-.008c-.221-.023-.44-.063-.639-.1a1.736,1.736,0,0,1-.248-.063c.01-.021.109-.188.141-.234.023,0,.2.062.2.011s-.157-.047-.183-.063a1.3,1.3,0,0,0,.054-.131c.05,0,.1.024.146.01.016-.057-.1-.034-.128-.053.023-.044.115-.229.127-.25.342.013.726,0,1.078.011a1.755,1.755,0,0,0,.224-.007Zm.731-.718s.384-.011.5-.02c.141-.011.386,0,.519,0,.091,0,.224-.016.314-.016.045,0,.144.028.1.1-.024.037-.222.029-.295.034-.146.01-.311.013-.446.028.019.06.092.073.149.07.079,0,.17-.009.259-.011a1,1,0,0,1,.3.009c.034.1-.021.11-.016.16a.376.376,0,0,1-.136.015c-.382.016-.864.013-1.25.032v-.4m5.348,8.642a6.6,6.6,0,0,0,1.13-2.7,5.46,5.46,0,0,0-.109-2.46c0-.011-.037-.12,0-.131s.073.11.076.131a5.436,5.436,0,0,1,.107,2.46,6.6,6.6,0,0,1-1.128,2.7c-.013.016-.087.138-.118.115s.036-.1.046-.115m-11.379.156c-.029.021-.092-.076-.105-.092a6.6,6.6,0,0,1-1.128-2.7,5.453,5.453,0,0,1,.107-2.459c0-.021.04-.143.075-.131s0,.121,0,.131a5.5,5.5,0,0,0-.107,2.459,6.591,6.591,0,0,0,1.128,2.7c.011.021.06.073.034.092m-.047-7.608-.01-.01a.049.049,0,0,0-.065.008l-.1.123a.045.045,0,0,1-.065.008l-.007,0a.046.046,0,0,1-.008-.065l.334-.425a.043.043,0,0,1,.063-.008l.054.04a.359.359,0,0,1,.061.068.191.191,0,0,1-.016.213c-.081.1-.156.121-.246.052m.18-.235-.008-.007a.048.048,0,0,0-.065.008l-.07.089c-.016.021-.018.045-.006.055a.224.224,0,0,0,.068.022s.031,0,.07-.045.053-.091.011-.123m.088.712a.155.155,0,0,1-.13-.036.152.152,0,0,1-.06-.12c0-.066.041-.123.135-.238s.144-.166.208-.177a.165.165,0,0,1,.189.154c0,.066-.04.123-.136.238s-.141.167-.206.178m.247-.418a.058.058,0,0,0-.021-.049.055.055,0,0,0-.052-.011c-.034.011-.078.059-.151.148a.493.493,0,0,0-.117.177.056.056,0,0,0,.021.049.052.052,0,0,0,.052.013c.034-.011.078-.062.151-.149a.467.467,0,0,0,.117-.176m.078.692a.162.162,0,0,1-.144-.266l.271-.335a.043.043,0,0,1,.063-.008l.007.005a.047.047,0,0,1,.008.065l-.246.306a.275.275,0,0,0-.04.078.048.048,0,0,0,.018.049.064.064,0,0,0,.091-.015l.274-.341a.047.047,0,0,1,.065-.006l.007,0a.048.048,0,0,1,.006.063l-.271.337a.163.163,0,0,1-.107.063m.321.3a.067.067,0,0,1-.019-.072l.06-.17a.056.056,0,0,0-.006-.061c-.011-.008-.034,0-.05.021l-.1.133a.043.043,0,0,1-.063.008l-.006-.005a.044.044,0,0,1-.008-.063l.329-.431a.046.046,0,0,1,.063-.008l.055.042a.3.3,0,0,1,.062.066.184.184,0,0,1-.011.208c-.047.063-.094.1-.159.086l-.079.238a.034.034,0,0,1-.052.016Zm.234-.508-.013-.01a.047.047,0,0,0-.063.008l-.062.083c-.016.02-.018.044,0,.053a.127.127,0,0,0,.071.021.089.089,0,0,0,.062-.041c.031-.042.052-.083.01-.115m.076.731a.046.046,0,0,1-.011-.065l.309-.443a.047.047,0,0,1,.065-.011l.005,0a.044.044,0,0,1,.013.063l-.259.372a.044.044,0,0,0,.011.063l.061.042a.046.046,0,0,1,.011.063.045.045,0,0,1-.063.011Zm.48.326a.059.059,0,0,1-.021-.068l.013-.035a.057.057,0,0,0-.021-.067l-.047-.029a.058.058,0,0,0-.07.005l-.026.028a.059.059,0,0,1-.07.008l-.011-.008a.035.035,0,0,1,0-.057l.41-.381a.061.061,0,0,1,.071-.006l.005,0a.061.061,0,0,1,.022.068l-.186.527a.036.036,0,0,1-.053.02Zm.125-.439c.009-.024,0-.028-.015-.011l-.127.128a.037.037,0,0,0,.006.058l.015.008a.034.034,0,0,0,.053-.016Zm.384.456-.011-.007a.049.049,0,0,0-.063.016l-.078.136a.046.046,0,0,1-.063.016l-.006,0a.045.045,0,0,1-.016-.063l.271-.469a.044.044,0,0,1,.062-.016l.059.034a.272.272,0,0,1,.07.058.191.191,0,0,1,.015.212c-.066.115-.138.141-.237.085m.144-.258-.008,0a.046.046,0,0,0-.063.018l-.057.1c-.013.021-.011.045,0,.053a.17.17,0,0,0,.07.015s.031,0,.063-.057.041-.1-.006-.123m.185.72a.057.057,0,0,1-.027-.066l.01-.034a.058.058,0,0,0-.027-.065l-.049-.026a.057.057,0,0,0-.07.015l-.023.029a.062.062,0,0,1-.07.013l-.011-.005a.037.037,0,0,1-.011-.058l.373-.417a.057.057,0,0,1,.07-.013l.005,0a.06.06,0,0,1,.031.066l-.138.543a.033.033,0,0,1-.05.021Zm.083-.449c.008-.023,0-.026-.016-.008l-.114.138a.035.035,0,0,0,.011.057l.015.008a.036.036,0,0,0,.054-.021Zm.433.1a.044.044,0,0,0-.06.021l-.195.407a.045.045,0,0,1-.062.022l-.006,0a.046.046,0,0,1-.021-.062l.193-.407a.045.045,0,0,0-.021-.061l-.013-.007a.045.045,0,1,1,.039-.081l.2.1a.044.044,0,0,1,.023.06.045.045,0,0,1-.06.021Zm.162.66a.069.069,0,0,1-.039-.063l.016-.18a.065.065,0,0,0-.021-.057c-.015-.006-.034.008-.044.033l-.065.156a.048.048,0,0,1-.06.022l-.008,0a.046.046,0,0,1-.024-.06l.208-.5a.046.046,0,0,1,.06-.026l.065.028a.3.3,0,0,1,.076.047.184.184,0,0,1,.042.2c-.029.073-.067.118-.131.125l-.018.25a.031.031,0,0,1-.045.028Zm.1-.548-.015-.006a.046.046,0,0,0-.06.024l-.039.094c-.01.024,0,.049.01.055a.15.15,0,0,0,.073,0s.029-.006.05-.057.029-.091-.019-.112m.1.621a.048.048,0,0,1-.028-.059l.186-.509a.05.05,0,0,1,.06-.028l.006,0a.045.045,0,0,1,.027.058l-.186.508a.045.045,0,0,1-.058.029Zm.208.073a.048.048,0,0,1-.031-.058l.167-.515a.045.045,0,0,1,.057-.029l.167.053a.046.046,0,0,1,.029.057.046.046,0,0,1-.057.029l-.071-.024a.049.049,0,0,0-.059.031l-.026.083a.043.043,0,0,0,.029.057l.048.016a.048.048,0,0,1,.031.057.046.046,0,0,1-.059.029l-.048-.016a.048.048,0,0,0-.059.031l-.027.088a.046.046,0,0,0,.029.058l.072.023a.045.045,0,0,1,.031.055.048.048,0,0,1-.058.031Zm.525.153a.047.047,0,0,1-.034-.057l.123-.527a.046.046,0,0,1,.055-.032l.008,0a.046.046,0,0,1,.034.055l-.1.438a.048.048,0,0,0,.034.057l.073.016a.048.048,0,0,1,.036.053.046.046,0,0,1-.055.034Zm.329.071a.045.045,0,0,1-.037-.053l.1-.533a.045.045,0,0,1,.053-.036l.17.029a.045.045,0,1,1-.017.089l-.073-.013a.045.045,0,0,0-.052.037l-.016.086a.047.047,0,0,0,.037.055l.05.006a.047.047,0,0,1,.037.053.045.045,0,0,1-.053.036l-.05-.01a.048.048,0,0,0-.053.039l-.016.089a.049.049,0,0,0,.037.055l.074.011a.046.046,0,0,1,.036.053.045.045,0,0,1-.052.036Zm.59.049a.177.177,0,0,1-.128.028.166.166,0,0,1-.117-.055.179.179,0,0,1-.026-.141l.054.007a.051.051,0,0,1,.044.05.06.06,0,0,0,.011.028.056.056,0,0,0,.044.022.055.055,0,0,0,.05-.013.1.1,0,0,0,.024-.066c.008-.068,0-.086-.047-.11l-.032-.018a.755.755,0,0,1-.075-.052.165.165,0,0,1-.034-.138.168.168,0,0,1,.066-.13.166.166,0,0,1,.11-.024.161.161,0,0,1,.11.05.176.176,0,0,1,.028.143l-.052-.006a.047.047,0,0,1-.042-.05.07.07,0,0,0-.011-.024.049.049,0,0,0-.042-.023.051.051,0,0,0-.044.011.093.093,0,0,0-.024.06c-.007.053,0,.068.042.092l.031.016a.4.4,0,0,1,.073.053.18.18,0,0,1,.042.156.176.176,0,0,1-.055.134m.579.023a.164.164,0,0,1-.123.041.161.161,0,0,1-.122-.044.17.17,0,0,1-.039-.136h.054a.048.048,0,0,1,.047.047.058.058,0,0,0,.015.024.072.072,0,0,0,.1,0,.1.1,0,0,0,.016-.07c0-.068-.008-.084-.057-.105l-.032-.015a.482.482,0,0,1-.081-.044A.165.165,0,0,1,386,91.07a.173.173,0,0,1,.053-.133.158.158,0,0,1,.109-.037.16.16,0,0,1,.113.04.179.179,0,0,1,.042.139l-.054,0a.048.048,0,0,1-.047-.047s0,0-.013-.021a.052.052,0,0,0-.044-.019.053.053,0,0,0-.044.018.1.1,0,0,0-.018.062c0,.05.006.068.052.086l.031.013a.4.4,0,0,1,.079.047.232.232,0,0,1,.013.289m.428-.013a.171.171,0,0,1-.233,0c-.044-.049-.052-.118-.06-.268s-.006-.221.033-.27a.139.139,0,0,1,.12-.06.146.146,0,0,1,.114.034.182.182,0,0,1,.057.13l-.053,0a.05.05,0,0,1-.052-.042s0,0-.013-.017a.048.048,0,0,0-.047-.021.056.056,0,0,0-.047.027.515.515,0,0,0-.01.211.474.474,0,0,0,.033.209.053.053,0,0,0,.048.019.055.055,0,0,0,.046-.024.132.132,0,0,0,.011-.063l.1-.005a.194.194,0,0,1-.044.138m.2.015a.045.045,0,0,1-.05-.04l-.05-.538a.045.045,0,0,1,.041-.05h.008a.045.045,0,0,1,.05.04l.05.538a.045.045,0,0,1-.04.05Zm.219-.023a.047.047,0,0,1-.052-.041l-.075-.535a.047.047,0,0,1,.041-.052l.172-.024a.047.047,0,0,1,.052.039.046.046,0,0,1-.039.05l-.075.011a.044.044,0,0,0-.039.05l.011.088a.047.047,0,0,0,.052.039l.05-.008a.046.046,0,1,1,.013.091l-.05.006a.046.046,0,0,0-.039.052l.011.091a.047.047,0,0,0,.052.039l.075-.009a.046.046,0,0,1,.052.039.045.045,0,0,1-.041.05Zm.612-.105a.069.069,0,0,1-.068-.029l-.17-.263c-.013-.021-.021-.018-.016.006l.055.279a.049.049,0,0,1-.036.055h-.008a.045.045,0,0,1-.053-.036l-.105-.532a.047.047,0,0,1,.034-.053.081.081,0,0,1,.07.029l.168.263c.015.022.021.019.016-.005l-.057-.279a.049.049,0,0,1,.037-.055l.008,0a.047.047,0,0,1,.053.037l.105.53a.044.044,0,0,1-.034.053m.417-.138a.14.14,0,0,1-.094.066.159.159,0,0,1-.133-.02c-.053-.039-.076-.105-.115-.25s-.05-.212-.023-.272a.141.141,0,0,1,.1-.083.155.155,0,0,1,.118.01.19.19,0,0,1,.083.117l-.052.013a.05.05,0,0,1-.06-.031s0,0-.015-.013a.056.056,0,0,0-.052-.011.052.052,0,0,0-.039.037.485.485,0,0,0,.032.208.5.5,0,0,0,.075.2.051.051,0,0,0,.052.011.053.053,0,0,0,.041-.036.143.143,0,0,0,0-.063l.1-.026a.184.184,0,0,1-.016.144m.2-.026a.047.047,0,0,1-.057-.031l-.169-.514a.044.044,0,0,1,.03-.057l.165-.057a.046.046,0,0,1,.057.029.044.044,0,0,1-.03.057l-.071.024a.045.045,0,0,0-.029.057l.027.085a.047.047,0,0,0,.058.029l.049-.015a.042.042,0,0,1,.057.028.044.044,0,0,1-.029.057l-.049.017a.044.044,0,0,0-.029.057l.029.089a.044.044,0,0,0,.057.028l.071-.023a.047.047,0,0,1,.058.028.048.048,0,0,1-.031.059Zm.553-.238a.175.175,0,0,1-.1.084.165.165,0,0,1-.13,0,.169.169,0,0,1-.087-.11l.05-.021a.054.054,0,0,1,.063.026s0,.008.023.018a.065.065,0,0,0,.049,0,.062.062,0,0,0,.039-.034.109.109,0,0,0-.01-.071c-.026-.063-.04-.075-.094-.075l-.036,0a.434.434,0,0,1-.091-.011.159.159,0,0,1-.1-.105.173.173,0,0,1,0-.143.16.16,0,0,1,.086-.076.162.162,0,0,1,.122-.006.183.183,0,0,1,.09.112l-.05.021a.052.052,0,0,1-.062-.026s0-.005-.02-.015a.049.049,0,0,0-.048,0,.058.058,0,0,0-.034.031.107.107,0,0,0,.008.065c.019.049.032.06.079.06h.036a.583.583,0,0,1,.089.013.189.189,0,0,1,.11.118.186.186,0,0,1,.013.146m.339-.112a.046.046,0,0,1-.062-.021l-.237-.488a.047.047,0,0,1,.022-.061l.156-.076a.049.049,0,0,1,.062.021.047.047,0,0,1-.021.06l-.068.034a.045.045,0,0,0-.021.061l.037.079a.049.049,0,0,0,.063.02l.046-.021a.044.044,0,0,1,.06.02.046.046,0,0,1-.021.061l-.046.021a.046.046,0,0,0-.021.062l.04.083a.043.043,0,0,0,.06.023l.068-.034a.045.045,0,0,1,.039.081Zm.222-.728a.049.049,0,0,0-.018.063l.219.394a.046.046,0,0,1-.018.063l-.006,0a.044.044,0,0,1-.062-.018l-.219-.4a.047.047,0,0,0-.063-.018l-.013.006a.044.044,0,1,1-.042-.078l.193-.107a.045.045,0,0,1,.062.018.048.048,0,0,1-.018.062Zm.566.293a.048.048,0,0,1-.063-.013l-.287-.46a.047.047,0,0,1,.014-.063l.006,0a.047.047,0,0,1,.063.016l.24.381a.045.045,0,0,0,.063.016l.063-.039a.043.043,0,0,1,.062.013.046.046,0,0,1-.015.063Zm.484-.313a.054.054,0,0,1-.069-.008l-.026-.026a.06.06,0,0,0-.071-.005l-.046.029a.059.059,0,0,0-.021.068l.013.034a.061.061,0,0,1-.02.068l-.011.007a.035.035,0,0,1-.053-.018l-.189-.527a.061.061,0,0,1,.022-.068l.005,0a.059.059,0,0,1,.071.006l.41.379a.034.034,0,0,1,0,.057Zm-.353-.289c-.018-.016-.024-.013-.015.011l.066.166a.036.036,0,0,0,.055.016l.015-.008a.038.038,0,0,0,.006-.058Zm.705.052a.15.15,0,0,1-.131.026c-.063-.016-.107-.07-.195-.191s-.123-.182-.118-.247a.144.144,0,0,1,.068-.115.153.153,0,0,1,.116-.031.188.188,0,0,1,.117.079l-.044.031a.052.052,0,0,1-.068-.008s-.026-.029-.07,0a.049.049,0,0,0-.024.047.493.493,0,0,0,.1.183c.068.094.107.144.139.157a.055.055,0,0,0,.053-.007c.036-.026.029-.066,0-.1l-.031-.042c-.015-.021-.037-.029-.052-.019a.037.037,0,0,1-.048-.015.044.044,0,0,1,.013-.06l.057-.04a.047.047,0,0,1,.065.011l.074.1a.156.156,0,0,1-.029.238m.24-.185a.045.045,0,0,1-.065-.01l-.323-.433a.047.047,0,0,1,.01-.065l.006,0a.046.046,0,0,1,.063.01l.269.361a.045.045,0,0,0,.065.01l.06-.044a.045.045,0,1,1,.054.073Zm.394-.355a.165.165,0,0,1-.2.149c-.065-.015-.109-.068-.2-.186s-.129-.177-.126-.241a.166.166,0,0,1,.195-.149c.064.015.108.066.2.187s.131.175.128.241m-.35-.337a.064.064,0,0,0-.052.011.052.052,0,0,0-.024.049.5.5,0,0,0,.11.18c.07.092.112.141.144.154a.052.052,0,0,0,.052-.01.051.051,0,0,0,.023-.048c0-.036-.039-.088-.108-.18s-.112-.143-.144-.156m.535.255a.046.046,0,0,1-.065-.008l-.329-.43a.046.046,0,0,1,.008-.065l.007,0a.044.044,0,0,1,.063.008l.331.431a.046.046,0,0,1-.008.063Zm.36-.274a.067.067,0,0,1-.073,0l-.147-.1a.062.062,0,0,0-.06-.01c-.013.008-.01.034,0,.053l.1.135a.046.046,0,0,1-.01.063l-.006.005a.046.046,0,0,1-.063-.008l-.328-.433a.045.045,0,0,1,.008-.063l.055-.04a.307.307,0,0,1,.079-.044.19.19,0,0,1,.2.065.168.168,0,0,1,.041.178l.208.141a.031.031,0,0,1,0,.053Zm-.426-.36-.011.01a.045.045,0,0,0-.008.065l.062.081c.015.02.037.028.05.018a.142.142,0,0,0,.039-.063.089.089,0,0,0-.023-.07c-.033-.042-.065-.071-.109-.04m.564.258a.047.047,0,0,1-.065-.011l-.313-.439a.045.045,0,0,1,.009-.065l.141-.1a.047.047,0,0,1,.063.011.045.045,0,0,1-.01.063l-.061.044a.046.046,0,0,0-.01.063l.05.073a.046.046,0,0,0,.063.01l.042-.031a.044.044,0,0,1,.063.011.046.046,0,0,1-.009.063l-.042.029a.045.045,0,0,0-.011.063l.053.075a.047.047,0,0,0,.065.011l.06-.042a.045.045,0,1,1,.052.073Zm1.525-7.175c-.068.035-1.683,1.026-2.051,1.345a19.1,19.1,0,0,0-1.405,1.464c-.022.028-.034.076-.078.077-.1-.167.265-.5.261-.543-.052.011-.181.183-.217.222s-.036.066-.073.073c-.073-.089,0-.166.052-.222.037-.04.214-.272.253-.336a2.417,2.417,0,0,0-.292.285c-.013.016-.034.07-.057.068-.049,0-.034-.114-.014-.144s.337-.375.368-.423a2.37,2.37,0,0,0-.3.267c-.018.021-.065.094-.091.083s-.026-.076.01-.112a12.751,12.751,0,0,1,3.694-2.174c.017,0,.007.036-.063.068m-7.657,1.232c-.1.031-.823.118-1.008.141-.049-.047-.052-.147-.13-.164a.58.58,0,0,0-.112.008c-.214.016-.409.049-.6.073l-.108.013,0-.011a.7.7,0,0,1-.041-.076c-.008-.024-.215-.318-.313-.467a.992.992,0,0,1-.121-.209c-.015-.047,0-.1-.01-.146a.194.194,0,0,0-.083-.1c-.034-.017-.1-.011-.115-.036a.982.982,0,0,1-.037-.12,1.765,1.765,0,0,0-.155-.319,1.8,1.8,0,0,0-.258-.366c-.029-.013-.094,0-.133-.011-.076-.024-.088-.154-.17-.159-.059-.005-.25.155-.289.183a5.627,5.627,0,0,0-.73.566c-.026.063.047.121.047.121s.089.071.1.117a.667.667,0,0,1,.008.105,1.912,1.912,0,0,0,.48.59c.042.029.109.036.116.071s-.034.079-.026.128c.018.1.141.114.2.172a1.688,1.688,0,0,1,.178.261c.06.089.1.134.153.222a.223.223,0,0,1-.373.062,21.211,21.211,0,0,0-4.311-2.383c-.1-.045-.139-.076-.144-.058s.269.421.412.725c.05.105.4.69.421.772-.105-.007-.233-.14-.264-.123s.011.121.048.238a5.861,5.861,0,0,0,.6,1.365c.049.073.073.114.053.135-.047.045-.279-.122-.311-.109,0,0-.023.015,0,.094a7.016,7.016,0,0,0,.738,1.247c-.023.021-.1.008-.131.047s.036.109.081.185.323.438.35.48a4.519,4.519,0,0,0,.563.543,5.96,5.96,0,0,0,.7.4,3.617,3.617,0,0,0,.64.189,1.494,1.494,0,0,1,.242.039c.039.013.134.1.195.127a2.044,2.044,0,0,0,1.357.266.624.624,0,0,1,.394,0,3.063,3.063,0,0,1,.378.311s-.141.276-.195.383c-.1.212-.579,1-.621,1.059s-.107.225-.179.206c-.026-.008-.756-.416-.9-.532s-1.251-.911-1.44-1.063c-.123-.1-.736-.473-1.328.31a1.44,1.44,0,0,0,.381,2.125.96.96,0,0,1,.268.821c-.008.039-.04.078-.02.12a1.947,1.947,0,0,0,.809-1.3,11.066,11.066,0,0,0,1.179.835c-.049.065-.114.159-.146.212a.546.546,0,0,1-.149.177c-.047.018-.165.021-.195.076s.021.134.01.207a.378.378,0,0,1-.1.151.449.449,0,0,1-.115.136.506.506,0,0,1-.122.041c-.024.007-.05.023-.078.033a.572.572,0,0,0-.083.031.147.147,0,0,0-.039.216c.02.035.034.073.049.1.034.055.089.094.112.14.045.094.412.6.335.733-.032.055-.091.058-.17.063s-.128-.057-.185-.087c.044-.1.149-.277.121-.353s-.055-.07-.141-.131-1.047-.982-1.115-1.081-.331-.431-.412-.548-.344-.561-.4-.558c-.042,0-.123.157-.128.178s-.047.136-.058.162a5.985,5.985,0,0,0-.148,2.57,6.057,6.057,0,0,0,1.221,2.85c.033.036.066.078.115.062a2.168,2.168,0,0,0,.476-.368.052.052,0,0,1,.07,0l.021.019a5.413,5.413,0,0,0,1.788,1.188c.24.1.457.185.67.267,1.294.512,2.142.795,2.633,2.336.029.083.026.086.049.086s.04-.062.048-.091c.488-1.6,1.318-1.88,2.628-2.4.212-.083.429-.17.668-.267a5.449,5.449,0,0,0,1.8-1.2,2.17,2.17,0,0,0,.477.368c.048.015.055-.008.087-.044a5.783,5.783,0,0,0,1.274-2.877,5.949,5.949,0,0,0-.149-2.57c-.023-.063-.1-.318-.162-.326s-.107.05-.161.126c-.037.053-.083.112-.121.173a11.643,11.643,0,0,1-1.88,2.028c-.047.091.07.211.1.319a.723.723,0,0,1-.18.083c-.065.011-.191-.11-.19-.154.005-.083.094-.157.141-.209a.941.941,0,0,0,.185-.3,2.209,2.209,0,0,1,.125-.261,1.132,1.132,0,0,0,.1-.214.208.208,0,0,0-.083-.117c-.033-.018-.221-.07-.256-.088a.792.792,0,0,1-.233-.3c-.008-.071.042-.151.009-.208s-.131-.039-.188-.068a2.928,2.928,0,0,1-.267-.35,10.171,10.171,0,0,0,1.212-.854v0a2.107,2.107,0,0,0,.815,1.31c.018-.023-.018-.091-.034-.171a.988.988,0,0,1,.268-.76,1.442,1.442,0,0,0,.381-2.127.908.908,0,0,0-1.193-.392c-.224.112-.96.726-1.133.856a9.651,9.651,0,0,1-1.247.783.227.227,0,0,1-.162-.039,7.314,7.314,0,0,1-.648-.988c-.131-.254-.3-.567-.245-.651a1.746,1.746,0,0,1,.454-.285,4.056,4.056,0,0,1,.489.073,2.726,2.726,0,0,0,1.111-.307c.2-.141.144-.1.17-.115s.185-.031.261-.044a3.78,3.78,0,0,0,2.162-1.428c.152-.23.195-.309.17-.371s-.1-.015-.13-.053c.125-.212.379-.511.431-.616a4.722,4.722,0,0,0,.276-.5c.04-.117.072-.177.034-.217s-.259.141-.31.093.128-.2.46-.874c.278-.559.269-.8.243-.85s-.217.094-.258.1c.127-.253.29-.5.42-.747.143-.3.418-.707.412-.726s-.05.013-.146.058a21.355,21.355,0,0,0-4.31,2.385.248.248,0,0,1-.311-.008c.088-.123.143-.206.17-.246a1.785,1.785,0,0,1,.187-.256c.06-.058.183-.075.2-.172.008-.049-.036-.088-.026-.128s.075-.044.117-.071a1.627,1.627,0,0,0,.2-.18,1.675,1.675,0,0,0,.279-.41c.008-.034,0-.073.008-.105s.07-.065.1-.117a.3.3,0,0,0,.047-.121c0-.04-.083-.076-.128-.11-.23-.18-.689-.514-.739-.551s-.092-.092-.151-.087c-.083,0-.094.134-.17.159-.039.013-.1,0-.133.011a1.1,1.1,0,0,0-.209.29,4.1,4.1,0,0,0-.2.4.442.442,0,0,1-.037.12c-.019.024-.081.019-.113.036a.2.2,0,0,0-.085.1c-.011.044,0,.1-.01.146a1.581,1.581,0,0,1-.146.235c-.036.06-.263.4-.289.441s-.063.1-.063.1a2.45,2.45,0,0,0-.37-.07c-.115-.011-.421-.049-.421-.049-.123-.033-.157.084-.2.159-.282-.044-.524-.068-.765-.086-.053-.008-.055-.087-.057-.138s-.006-.786,0-.919c0-.013.015-.01.015-.005.67.934,1.339.9,1.538.812a3.663,3.663,0,0,0,.569-1.1,2.723,2.723,0,0,0,.12-.934,2.515,2.515,0,0,0-1.582-2.289,3.294,3.294,0,0,0-2.845.227c-.1.053-.142.092-.147.117-.011.044.062.123.094.134s.1-.011.146-.009a.687.687,0,0,1,.316.315,1.073,1.073,0,0,1,.133.494,3.147,3.147,0,0,0-.459.642c-.147-.151-.255.221-.3.314a2.471,2.471,0,0,0-.125.663.249.249,0,0,0,.06.128c-.089.222-.238.469-.266.558a1.587,1.587,0,0,0-.151.489,3.367,3.367,0,0,0,2.153-.282c0,.2,0,.723,0,.723a.077.077,0,0,1,0,.021m.533-.97a.052.052,0,0,0-.045-.057.051.051,0,0,0-.047.057v2.377a.051.051,0,0,0,.047.057.052.052,0,0,0,.045-.057Zm-.167.078c0-.031-.032-.048-.07-.026-.053.029-.209.105-.209.157v2.166c0,.033.024.05.059.059a.689.689,0,0,0,.172,0,.067.067,0,0,0,.048-.063Zm-.164,14.572c0-.04-.075-4-.075-4.009a2.672,2.672,0,0,0-.039-.441c-.028-.063-.1-.061-.17-.063a4.923,4.923,0,0,1-.921-.1c-.07-.015-.052.114,0,.115.12,0,.322.055.439.06a.659.659,0,0,0-.029.068c-.084.007-.493-.1-.44.059.034.1.334.078.418.133-.009,0,0,.026,0,.039-.1,0-.279-.031-.384-.042-.044.021-.046.063-.039.126.011.008.4.053.392.105a3.188,3.188,0,0,1-.383-.009.523.523,0,0,0,0,.113c.042.037.379.042.371.088-.083.037-.295,0-.361.018a.235.235,0,0,0,0,.122c.05.021.349.029.336.063a1.379,1.379,0,0,1-.34.02c0,.055.008.1,0,.156.047.029.334,0,.328.068a1.919,1.919,0,0,1-.337,0,1.377,1.377,0,0,0-.024.151c.057-.013.331,0,.324.061a1.147,1.147,0,0,1-.338.005c0,.047-.016.084-.02.131.029.034.342,0,.345.053s-.337.024-.36.015c0,.053-.018.091-.019.144.06,0,.363.032.347.076a2.743,2.743,0,0,1-.366,0c-.021.044-.04.088-.058.132.1.018.3.045.386.073.01.042-.034.029-.063.029s-.28-.04-.347-.048c-.02.045-.037.092-.059.136.046.021.431.071.425.117a2.611,2.611,0,0,1-.454-.049c-.016.053-.058.083-.078.136a3.423,3.423,0,0,1,.436.1V94.6a4.709,4.709,0,0,1-.478-.074c0,.026-.088.092-.083.115.006.039.512.089.515.136s-.515-.063-.574-.049c-.036.04-.082.07-.121.107a5.318,5.318,0,0,0,.645.127l.007.065c-.057,0-.538-.092-.725-.135a1,1,0,0,0-.131.114c.039.023.772.136.85.164v.029a5.355,5.355,0,0,1-.918-.144c-.086.031-.217.021-.309.047.318.094.648.174.989.243-.011.01-.015.029-.029.039-.1-.029-.911-.19-.979-.214-.031-.011-.052-.029-.078-.037a2.81,2.81,0,0,1-1.658-.665,10.849,10.849,0,0,1-1.78-1.874c-.035-.045-.057-.1-.107-.125a.492.492,0,0,0,.073.266,16.31,16.31,0,0,0,1.263,2.012,6.443,6.443,0,0,0,1.362,1.18,6.649,6.649,0,0,0,1.887.715,13.8,13.8,0,0,0,1.466.109c.071,0,.078-.088.078-.127M381.132,90.1a3.766,3.766,0,0,0-.975-.791c-.04.032.117.126.143.149s.668.608.71.653a1.644,1.644,0,0,1,.138.188c.052.076.13-.047-.016-.2M379.859,90c-.033.04.105.139.128.162,0,0,.631.551.679.966,0,.036.008.107.036.094s.065,0,.052-.107a1.1,1.1,0,0,0-.2-.483c-.058-.068-.64-.694-.692-.632m-.117-.292c-.029.042.115.13.139.154,0,0,.866.662.944,1.072.008.034.013.1.042.092s.067,0,.044-.112a1.2,1.2,0,0,0-.284-.477c-.141-.154-.838-.8-.885-.729m-.013-.274c-.063.024.121.18.159.2.073.05.986.82,1.057,1.08.014.05.024.1.049.089s.066,0,.037-.113a1.107,1.107,0,0,0-.352-.477c-.23-.23-.854-.82-.95-.783m.107-.159c-.063.024.121.18.157.2a8.01,8.01,0,0,1,1.08,1.02c.027.045.016.084.053.075s.05-.024.033-.1a1.793,1.793,0,0,0-.383-.441c-.228-.229-.843-.8-.94-.76m11.713.963a1.719,1.719,0,0,1,.138-.19c.042-.045.686-.632.712-.653s.182-.117.143-.149a3.789,3.789,0,0,0-.976.791c-.146.154-.066.276-.016.2m.6.326a1.094,1.094,0,0,0-.2.483c-.015.112.023.094.05.109s.032-.059.037-.1c.049-.415.678-.966.678-.966.022-.023.162-.121.128-.162-.05-.062-.634.564-.69.632m-.076-.195a1.226,1.226,0,0,0-.285.476c-.023.11.015.1.044.112s.036-.059.043-.092c.078-.41.943-1.072.943-1.072.024-.023.17-.112.139-.154-.047-.065-.742.577-.883.73m-.054-.221a1.079,1.079,0,0,0-.35.478c-.029.107.011.1.037.112s.034-.039.047-.089c.071-.259.984-1.028,1.058-1.08.036-.024.222-.18.159-.2-.1-.037-.721.554-.952.783m-.1-.182a1.738,1.738,0,0,0-.381.441c-.019.075,0,.089.033.1s.024-.029.052-.076a8.007,8.007,0,0,1,1.08-1.02c.036-.023.222-.18.159-.2-.1-.039-.713.53-.942.758m-5.544,2.226v-.071m-4.242-.337c.485.339,1.457,1.032,1.931,1.383a.146.146,0,0,1-.053.092c-.031.015-.739-.5-.739-.5l-.052.059s.541.373.732.522c.016.013-.06.079-.073.1-.47-.352-1.462-1.054-1.941-1.4.055-.091.138-.174.195-.259m.026-.227a23.121,23.121,0,0,1,2.036,1.412c.039.028.094.068.068.141a.383.383,0,0,1-.141-.085c-.042-.032-1.853-1.36-1.919-1.41-.018-.013-.057-.026-.044-.059m-.417.563s0,0,.008,0h.011c.358.245,1.864,1.354,2,1.456.037.028.1.06.1.12-.028.015-.05-.016-.068-.028-.153-.112-1.527-1.133-2.046-1.529Zm-.024.224c-.055-.041-.189-.12-.087-.155.723.52,1.436,1.061,2.148,1.59.02.015.053.026.049.058-.055.049-.114-.023-.151-.049-.514-.376-1.812-1.337-1.958-1.444m.47-.243a.071.071,0,0,1,0-.086c.052-.042.3.175.339.258-.112.019-.269-.112-.336-.172m4.055-7.2a.212.212,0,0,1,.047-.121,1.058,1.058,0,0,1-1.06-1,.925.925,0,0,1,.24-.618,1.042,1.042,0,0,0-.4.029c-.073.023-.092.07-.094.084a4.924,4.924,0,0,0-.008.942,4.454,4.454,0,0,0,.336,1.2.259.259,0,0,1,.011.032,3.454,3.454,0,0,1-.606.433c-.07-.018-.368-.293-.4-.3s-.039.013-.059.015c-.1.013-.186.008-.27.019-.052.008-.115,0-.141.044a7.349,7.349,0,0,0,.655,1.483.81.81,0,0,0,.125.185c.057.049.175.11.494.1.274-.015.608.009.859-.015h0v-.1h.35v-2.29a.159.159,0,0,1-.086-.123m.277.028s.039.036.269.026l-.023.055h-.279s-.094.016-.094.1.078.062.094.062h.284l-.023.061h-.266s-.084-.009-.084.062.018.112.066.112h.311l-.023.058h-.279a.071.071,0,0,0-.076.072c0,.05.023.1.058.1h.307l-.023.05h-.271a.074.074,0,0,0-.076.076c0,.052.024.105.089.105h.289l-.023.039h-.266a.087.087,0,0,0-.086.088c0,.049-.021.1.081.1h.285l-.023.049h-.266c-.042,0-.076.007-.076.076a.086.086,0,0,0,.1.089h.245l-.023.052h-.227c-.047,0-.085-.011-.085.084s.034.084.085.084h.227l.023.062h-.25c-.054,0-.088.01-.088.089s.041.079.079.079h.235l.023.066h-.253c-.049,0-.083-.006-.083.083s.021.083.083.083h.243l.023.057-.248,0a.107.107,0,0,0-.112.091c0,.047.057.071.094.071h.274l.023.062H386.4V87.3h.324v.087c.347.013.734-.026,1.088-.026.078,0,.269.023.251-.068-.006-.037-.125-.036-.173-.039-.2-.013-.339-.011-.514-.013.01-.013,0-.041,0-.06.148,0,.611-.017.64-.018.1-.008.157.005.14-.094-.143-.029-.326-.023-.48-.042,0-.016-.006-.047.005-.053.11-.005.233,0,.348-.005s.276.013.219-.107c-.125-.015-.3-.018-.441-.034a.168.168,0,0,0-.009-.068c.092.01.232-.011.348-.009.079,0,.243.039.2-.078-.122-.042-.3-.029-.428-.063.01-.024.034-.033.034-.062.074-.006.564.015.545-.094,0-.006-.015-.011-.01-.019-.241-.063-.549-.018-.806-.076V86.33s.814-.007.83-.01.068-.044.057-.068-.175-.053-.193-.059c-.162-.039-.35-.018-.5-.048a.083.083,0,0,1,.015-.049c.194,0,.468.018.648.01.057,0,.157,0,.146-.063-.006-.039-.219-.076-.261-.081a2.212,2.212,0,0,0-.459-.031,2.826,2.826,0,0,1-.618-.489c-.031-.055.1-.3.1-.3.036-.1.075-.2.086-.246.005-.016.011-.042.02-.071a3.348,3.348,0,0,0,.136-.61,4.541,4.541,0,0,0,0-.89c-.023-.141-.107-.156-.287-.183s-.1.1-.1.1a.912.912,0,0,1,.175.535,1.053,1.053,0,0,1-.968.993s-.039.01-.011.047a.187.187,0,0,1,.018.11m4.16.229c-.01.013-.154.251.151.066a1.621,1.621,0,0,1,.525-.217,3.146,3.146,0,0,1-.879.456l-.271.423a5.26,5.26,0,0,0,1.245-.6,7.081,7.081,0,0,0,.648-1.12c.073-.17,0-.188-.063-.134s-.311.235-.441.357a7.958,7.958,0,0,1-.7.467c-.049.049-.209.294-.219.307m-10.131-1.576a4.413,4.413,0,0,1-.287-.819c.036-.024.123.008.156.042.065.07.079.2.136.267.006-.015.009-.1.052-.1.162,0,.157.329.335.394-.008-.031-.039-.07-.015-.1a.222.222,0,0,1,.144.087,1.891,1.891,0,0,1,.3.543c-.1.026-.6-.423-.621-.434a5.082,5.082,0,0,0,.718.668c.044.074.185.423.209.486.006.019.023.042.019.058a7.794,7.794,0,0,1-1.144-1.093M378.521,81.6a.835.835,0,0,1,.426.36c.044.088.088.148.1.136s-.037-.12-.005-.117.143.057.36.383c-.008-.058-.088-.172-.029-.183.1-.021.186.229.257.31s-.008-.13.033-.136a.131.131,0,0,1,.126.059c.02.045.164.386.219.374.032-.008-.086-.2-.05-.238s.125.073.151.115a1.948,1.948,0,0,1,.19.608c-.042.053-.282-.149-.342-.186a6.356,6.356,0,0,0-.55-.459,1.3,1.3,0,0,0,.274.366,6.644,6.644,0,0,0,.734.648s.141.24.079.242c-.443.01-1.131-.869-1.206-.97a7.52,7.52,0,0,1-.765-1.312m3.234,3.26a7.988,7.988,0,0,1-.7-.467c-.128-.121-.383-.3-.441-.357s-.136-.037-.063.134a7.12,7.12,0,0,0,.648,1.119,5.269,5.269,0,0,0,1.245.6l-.271-.423a3.106,3.106,0,0,1-.879-.457,1.618,1.618,0,0,1,.525.219c.305.185.161-.053.151-.068s-.17-.258-.221-.305m2.173-.914c.037,0-.112-.015-.1.079a6.027,6.027,0,0,1-.079,1.067c-.062.2-.144.472-.107.493s.091.042.133-.075a4.194,4.194,0,0,0,.258-1.407c-.015-.154-.1-.157-.1-.157m4.674.162a4.135,4.135,0,0,0,.258,1.407c.042.117.1.1.133.075s-.047-.29-.107-.493a6.034,6.034,0,0,1-.081-1.067c.011-.094-.136-.079-.1-.079,0,0-.087,0-.1.157m46.466,82.253h-.2v-88.9h.2Zm-38.778-66.3c-2.874,3.39-6.582,7.778-9.889,11.873-12.867-15.9-24.837-28.663-32.766-34.6,4.134,9.492,14.318,24.121,27.665,41.111-6.926,8.977-20.68,26.809-27.69,41.963,9.551-7.528,22.36-22.419,32.784-35.561,12.836,15.941,25.056,29.581,32.936,35.479-4.111-9.437-14.574-25.043-27.838-42,5.2-6.684,7.1-9.06,12.21-16.279,5.552-7.837,14.54-19.05,19.361-16.7-7.2-4.09-17.463,3.729-26.773,14.712m-25.746,13.816a.685.685,0,0,1,.224.589,2.572,2.572,0,0,1-.12.705,8.013,8.013,0,0,1-.322.89q-.2.479-.482,1.008t-.593,1.05q-.318.523-.666,1.018t-.689.912q-.686.846-1.185,1.427c-.333.388-.62.715-.861.986s-.444.488-.609.655-.31.315-.438.434c-.073.07-.13.134-.2.2-.169.178-.335.363-.5.521a4.215,4.215,0,0,0-.079.64c-.006.195-.011.409-.006.592a2.4,2.4,0,0,0,.3,1.227.851.851,0,0,0,.752.4,1.4,1.4,0,0,0,.65-.169,3.468,3.468,0,0,0,.653-.431,6.287,6.287,0,0,0,.627-.6l.141-.159.326.344a5.758,5.758,0,0,1-.639.674,4.321,4.321,0,0,1-.859.6,1.925,1.925,0,0,1-1.666.091,1.651,1.651,0,0,1-.627-.467,2.417,2.417,0,0,1-.438-.812,3.573,3.573,0,0,1-.16-.978c-.24.217-.464.415-.665.59-.386.337-.716.626-1,.843a5.4,5.4,0,0,1-.879.58l-.141-.525a5.573,5.573,0,0,0,.71-.486c.29-.214.616-.493,1-.827.287-.251.618-.545.989-.883a8.845,8.845,0,0,1,.186-1.316,14.21,14.21,0,0,1,.556-1.9,17.37,17.37,0,0,1,.828-1.887,20.344,20.344,0,0,1,1.014-1.772,16.239,16.239,0,0,1,1.122-1.561,11.953,11.953,0,0,1,1.15-1.242,5.915,5.915,0,0,1,1.091-.819,1.968,1.968,0,0,1,.951-.293.922.922,0,0,1,.556.16m-.509,1.665a2.952,2.952,0,0,0,.219-1,.427.427,0,0,0-.058-.217.232.232,0,0,0-.2-.117,1.429,1.429,0,0,0-.78.389,7.791,7.791,0,0,0-1.052,1.063,17.785,17.785,0,0,0-1.17,1.564,19.808,19.808,0,0,0-1.136,1.911,20.338,20.338,0,0,0-.952,2.1,12.647,12.647,0,0,0-.616,2.111l0,0,0,0q.8-.834,1.558-1.689t1.417-1.7q.662-.844,1.214-1.637a17.13,17.13,0,0,0,.94-1.5,9.7,9.7,0,0,0,.61-1.282m4.118-.034a.738.738,0,0,0-.208-.489.688.688,0,0,0-.525-.222.741.741,0,0,0-.519.206.689.689,0,0,0-.224.525.782.782,0,0,0,.143.443.726.726,0,0,0,.469.279,1.9,1.9,0,0,1-.5.55,4.278,4.278,0,0,1-.764.489l.195.324a4.4,4.4,0,0,0,.7-.362,3.549,3.549,0,0,0,.619-.493,2.594,2.594,0,0,0,.459-.582,1.257,1.257,0,0,0,.152-.668m1.994,44.16h2.7v-.481h-2.159V157.44h2.146v-.48h-2.146v-1.692h2.159v-.48h-2.7Zm.5-5.484.157.316,1.587-.85-.178-.355Zm7.121,4.172a2.055,2.055,0,1,1,0-2.224h.587a2.517,2.517,0,1,0-2.239,3.622,2.423,2.423,0,0,0,2.239-1.4Zm1.081-1.1a2.54,2.54,0,1,0,0-.006Zm.547-.027a2.045,2.045,0,1,1,0,.007Zm5.458,2.443h2.636v-.481H391.4v-4.39h-.546Zm3.322,0h2.7v-.481h-2.159V157.44h2.146v-.48h-2.146v-1.692h2.159v-.48h-2.7Zm-36.071,1.855v4.871h.98v-1.671h.6a1.883,1.883,0,0,0,1.368-.389,1.645,1.645,0,0,0,.514-1.23,1.615,1.615,0,0,0-.553-1.245,2.107,2.107,0,0,0-1.435-.336Zm.98.863h.54a1.381,1.381,0,0,1,.664.125.632.632,0,0,1,.336.6.666.666,0,0,1-.323.62,1.305,1.305,0,0,1-.639.125h-.579Zm3,1.619a2.571,2.571,0,1,0,0-.006Zm.981-.052a1.67,1.67,0,1,1,0,.007Zm5.056,2.441h2.581v-.862h-1.6v-4.009h-.981Zm4.189,0h.981v-1.744l1.486-3.127h-1.054l-.927,2.211-.922-2.211h-1.059l1.495,3.127Zm4.08,0h.981v-4.009h1.047v-.863h-3.08v.863H376.4Zm3.069,0H382.2v-.862h-1.751v-1.179h1.718v-.863h-1.718v-1.106H382.2v-.863h-2.732Zm7.4-1.632a1.534,1.534,0,0,1-1.355.863,1.668,1.668,0,0,1-.007-3.33,1.509,1.509,0,0,1,1.362.889H387.9a2.484,2.484,0,0,0-2.39-1.753,2.528,2.528,0,1,0,.006,5.056,2.447,2.447,0,0,0,2.383-1.725Zm2.819,1.632v-2.054h1.876v2.054h.981v-4.871h-.981v1.955h-1.876v-1.955H388.7v4.871Zm5.124-4.871h-.875v4.871h.94l-.019-3.37,2.245,3.37h.869v-4.871h-.942l.02,3.377Zm4.554,4.871h.981v-4.871h-.981Zm8.148-4.871v3a1.789,1.789,0,0,0,.512,1.5,1.819,1.819,0,0,0,1.271.467,1.761,1.761,0,0,0,1.251-.467,1.825,1.825,0,0,0,.514-1.5v-3h-.981v3a1.422,1.422,0,0,1-.139.757.7.7,0,0,1-.652.349.718.718,0,0,1-.658-.368,1.482,1.482,0,0,1-.138-.738v-3Zm4.675,4.871h2.732v-.862h-1.751v-1.179h1.718v-.863h-1.718v-1.106h1.751v-.863h-2.732Zm-5.643-.733v.84h-.125a1.944,1.944,0,0,1-1.156-.4c-.05.031-.1.062-.152.089a2.6,2.6,0,0,1-1.227.311,2.554,2.554,0,0,1-1.044-.224c-.055-.024-.11-.052-.164-.078l0,0A2.482,2.482,0,0,1,401.329,164v-.006a2.557,2.557,0,0,1,5.115-.039,2.533,2.533,0,0,1-.53,1.558.976.976,0,0,0,.483.144Zm-4.231-1.7a1.6,1.6,0,0,0,1.587,1.665,1.517,1.517,0,0,0,.7-.169l-.5-.5.59-.6.519.515a1.769,1.769,0,0,0,.254-.906,1.579,1.579,0,1,0-3.153-.013v.007m64.478-41.778c-5.139-3.536-7.908-5.424-10.5-7.351a13.685,13.685,0,0,0,4,18.384c1.5-2.964,3.524-6.262,6.5-11.032m13.457,2.73a6.348,6.348,0,0,1-7.932,1.047c-.467-.3-3.812-2.6-3.812-2.6-3.693,5.215-5.589,7.837-7.627,10.232a13.683,13.683,0,0,0,20.788-11.025,6.445,6.445,0,0,1-1.417,2.346m-2.529-7.707c-.456-.3-3.388-2.252-3.388-2.252-2.4,3.542-2.78,4.063-4.617,6.692,0,0,3.194,2.069,3.652,2.351a4.055,4.055,0,0,0,6.113-2.67,4.012,4.012,0,0,0-1.761-4.121m-9.85,3.253c1.736-2.765,3.3-5.231,5.768-8.954,0,0,5.171,3.409,5.632,3.737a6.577,6.577,0,0,1,1.253,1.153,13.682,13.682,0,0,0-23.44-2.735c2.754,1.633,6.045,3.75,10.787,6.8m-12.808-8.4a1.726,1.726,0,1,0-1.731,1.72,1.724,1.724,0,0,0,1.731-1.72m2.684-2.965.361-.259-.473-.662.41-.293a.894.894,0,0,0,.321-1.294l0-.006a.854.854,0,0,0-1.278-.13l-.812.582Zm-.346-1.248-.53-.742.42-.3c.272-.193.537-.191.708.05l0,0a.478.478,0,0,1-.181.687Zm2.243-1.538a1.326,1.326,0,0,0,2.422-1.078l0-.006a1.326,1.326,0,0,0-2.422,1.078l0,.006m2-.883a.857.857,0,0,1-.42,1.164.867.867,0,0,1-1.153-.477l0-.006a.857.857,0,0,1,.42-1.164.873.873,0,0,1,1.154.477l0,.006m2.043.658,1.738-.379-.086-.4-1.3.285-.455-2.081-.434.1Zm3.1-.508.447-.026-.058-1.008.914-1.582-.509.031-.65,1.163-.775-1.08-.524.033,1.1,1.474Zm2.878.042.446.052.243-2.107.8.092.047-.41-2.043-.237-.049.41.8.092Zm2.3.38,1.814.557.117-.381-1.388-.427.2-.651,1.216.374.117-.381-1.216-.374.193-.631,1.372.421.117-.379-1.8-.553Zm3.418-.144a1.275,1.275,0,0,0,.515,1.759,1.309,1.309,0,0,0,1.119.093l-.114-.392a.993.993,0,0,1-.8-.054.858.858,0,0,1-.308-1.19l0-.007a.848.848,0,0,1,1.161-.39,1,1,0,0,1,.475.614l.409-.155a1.323,1.323,0,0,0-.686-.817,1.281,1.281,0,0,0-1.774.533l0,.006m2.322,2.822.34.285.686-.819.929.778-.687.817.342.287,1.628-1.944-.341-.285-.678.808-.927-.776.676-.808-.34-.287Zm2.584,2.355.267.347,1.427-1.1-.571,2.21.229.293,2-1.551-.269-.346-1.384,1.072.554-2.145-.253-.326Zm2.007,2.877.212.39,2.226-1.212-.213-.391Zm1.482,3.732.394.167.14-.353a1.29,1.29,0,0,0,.82-.009l.007,0a1.286,1.286,0,0,0,.8-1.673,1.3,1.3,0,0,0-1.671-.832l-.007,0a1.289,1.289,0,0,0-.8,1.676,1.3,1.3,0,0,0,.476.65Zm.329-.783a.812.812,0,0,1-.258-.371.868.868,0,0,1,.572-1.107l.007,0a.858.858,0,0,1,1.125.519.871.871,0,0,1-.574,1.109l-.007,0a.856.856,0,0,1-.491.029l.234-.543-.4-.164-.208.53m1.112,1.95a1,1,0,0,0-.982,1.2,1.012,1.012,0,0,0,1.257.95l1.428-.167-.052-.443-1.45.17a.609.609,0,0,1-.775-.55c-.047-.4.175-.666.644-.723l1.431-.167-.052-.443-1.449.17m-.81,3.5-.146,1.892.4.031.112-1.448.678.052-.1,1.268.4.031.1-1.268.657.05-.11,1.431.4.029.144-1.874Zm-25.723,13.1-.363-.259-1.469,2.069.365.258Zm-1.536-1.155-.31-.31-1.279,1.269.295-2.26-.263-.266-1.8,1.786.308.311,1.243-1.235-.287,2.2.292.293Zm-2.582-2.258a1.558,1.558,0,0,0-.243-1.108.791.791,0,0,0-1.13-.34l-.007.005c-.35.232-.357.57-.172,1.089.17.468.162.613,0,.721l0,0c-.139.091-.336.039-.478-.18a1.137,1.137,0,0,1-.16-.716l-.413-.015a1.406,1.406,0,0,0,.24.943.774.774,0,0,0,1.089.318l.006-.005c.391-.256.357-.6.167-1.12-.167-.453-.141-.59.01-.691l.006,0c.161-.1.362-.029.512.2a1.169,1.169,0,0,1,.165.851l.413.049m-1.527-3.384-.178-.412-1.949.838-.319-.739-.379.164.814,1.89.379-.164-.318-.74Zm-.8-2.184-.117-.431-2.446.663.117.431Zm-.479-2.27-.055-.446-2.106.264-.1-.8-.41.052.255,2.039.41-.05-.1-.8Zm-1.263-2.3a1,1,0,0,0,1.182-1.005,1.011,1.011,0,0,0-1.063-1.161l-1.435-.092-.029.444,1.456.094c.467.031.691.287.665.681s-.3.624-.764.595l-1.439-.094-.028.444,1.456.094M452.074,118l.112-.433-2.054-.537.2-.776-.4-.1-.517,1.991.4.1.2-.776Zm9.548,21.8.948.269c1.032.3,1.7-.094,1.918-.85l0-.008c.214-.756-.151-1.4-1.166-1.688l-.977-.279Zm1.065-.5.3-1.067.143.04c.39.112.6.344.491.712l0,.008c-.105.37-.4.457-.793.347Zm3.289,1.491,2.281.11.036-.728-1.411-.068.015-.289,1.3.063.031-.64-1.3-.063.015-.269,1.391.068.036-.728-2.263-.11Zm6.522-.417.85-.26-.211-.689.276-.085c.684-.211,1.052-.679.866-1.293l0-.007c-.185-.6-.738-.762-1.412-.556l-1.143.35Zm.453-1.555-.174-.566.233-.071c.225-.07.388-.015.444.17l0,.008c.057.18-.06.322-.277.389Zm3.078.356.825-.47-.059-.376.809-.46.3.241.838-.476-2.3-1.774-.765.436Zm.65-1.506-.107-.679.53.439Zm3.4-1.071.65-.607-.519-.556.133-.123.007-.005.883.213.741-.691-1.068-.238a.861.861,0,0,0-.172-.952l-.005,0a.835.835,0,0,0-.606-.3,1.307,1.307,0,0,0-.908.431l-.948.887Zm-.3-1.624-.355-.379.284-.264c.149-.141.3-.17.42-.046l.006.005c.11.12.081.277-.075.423Zm3.293-1.511.525-.717-2.143-1.569-.525.715Zm1.079-2.252a2.048,2.048,0,0,0,1-1.03c.313-.642.206-1.2-.295-1.448l-.007,0c-.481-.235-.859.088-1.268.645-.172.228-.243.274-.308.243l-.006,0c-.059-.029-.073-.1-.014-.224a1.381,1.381,0,0,1,.583-.6l-.35-.652a1.854,1.854,0,0,0-.853.919c-.319.658-.141,1.183.313,1.405l.007,0c.506.245.888-.151,1.258-.634.177-.23.25-.287.318-.254l.006,0c.065.032.073.11,0,.254a1.518,1.518,0,0,1-.688.7l.3.674m9.5-16.591h1.234V107.6h-1.234Zm4.706,0h1.214v-5l3.873,5h1.034v-7.026h-1.214v4.857l-3.763-4.857h-1.144Zm12.234-4.075c-1.344-.321-1.665-.572-1.665-1.114,0-.462.42-.843,1.143-.843a3.189,3.189,0,0,1,1.907.721l.663-.932a3.9,3.9,0,0,0-2.55-.883,2.156,2.156,0,0,0-2.4,2.048c0,1.3.843,1.746,2.338,2.107,1.305.3,1.586.582,1.586,1.085,0,.532-.482.892-1.243.892a3.234,3.234,0,0,1-2.218-.913l-.742.884a4.32,4.32,0,0,0,2.929,1.123c1.475,0,2.51-.793,2.51-2.107,0-1.163-.772-1.705-2.258-2.067m6.7,4.075h1.245v-5.881h2.228v-1.144h-5.7v1.144h2.228Zm6.191,0h1.234V107.6h-1.234Zm6.179,0H530.9v-5.881h2.228v-1.144h-5.7v1.144h2.227Zm5.948-2.981a2.768,2.768,0,0,0,2.991,3.09,2.8,2.8,0,0,0,3.02-3.15V107.6h-1.234v4.045c0,1.3-.673,1.957-1.767,1.957s-1.777-.7-1.777-2.007V107.6H535.6v4.045m10.714,2.981h1.245v-5.881h2.228v-1.144h-5.7v1.144h2.229Zm-49.9,3.764a2.371,2.371,0,0,1,2.67,2.359c0,1.576-1.264,2.409-2.809,2.409h-1.4v2.258h-1.234v-7.026h2.769m-.1,3.654c.934,0,1.516-.532,1.516-1.265,0-.823-.592-1.266-1.516-1.266H494.88v2.531h1.435M505,118.265a3.633,3.633,0,1,1-3.683,3.643A3.575,3.575,0,0,1,505,118.265m0,6.131a2.382,2.382,0,0,0,2.368-2.488,2.415,2.415,0,0,0-2.388-2.508,2.381,2.381,0,0,0-2.368,2.488A2.414,2.414,0,0,0,505,124.4m6.438,1.015h4.928v-1.123h-3.693v-5.9H511.44Zm8.256,0h1.245v-2.8l2.789-4.225h-1.414l-1.987,3.113-1.966-3.113h-1.456l2.79,4.255Zm8.188,0h1.245V119.53h2.227v-1.145h-5.7v1.145h2.229Zm6.183,0h5.259v-1.106H535.3V122.42h3.521v-1.1H535.3v-1.825h3.973v-1.106h-5.208Zm13.576-1.926a2.752,2.752,0,0,1-2.019.911,2.505,2.505,0,0,1,0-5,2.788,2.788,0,0,1,1.968.874l.792-.914a3.667,3.667,0,0,0-2.749-1.095,3.634,3.634,0,0,0-.05,7.268,3.628,3.628,0,0,0,2.85-1.245Zm3.494,1.926h1.235v-2.96h3.351v2.96h1.234v-7.026h-1.234v2.921h-3.351v-2.921h-1.235Zm9.35,0H561.7v-5l3.874,5h1.032v-7.026h-1.214v4.857l-3.763-4.857h-1.144Zm9.657,0h1.235v-7.026h-1.235Zm11.453-.672-.791.884-.845-.754a3.614,3.614,0,0,1-2.137.663,3.638,3.638,0,1,1,2.97-1.475Zm-1.746-1.506a2.53,2.53,0,0,0-2.027-3.832,2.382,2.382,0,0,0-2.368,2.488,2.415,2.415,0,0,0,2.39,2.508,2.23,2.23,0,0,0,1.2-.34l-1.2-1.025.791-.9,1.214,1.1m4.448-.8a2.768,2.768,0,0,0,2.991,3.09,2.8,2.8,0,0,0,3.02-3.15v-3.985h-1.235v4.045c0,1.3-.673,1.957-1.766,1.957s-1.777-.7-1.777-2.007v-3.994H584.3v4.045m9.051,2.981h5.258v-1.106h-4.022V122.42h3.523v-1.1h-3.523v-1.825h3.974v-1.106H593.35Zm-97,3.764c2.51,0,3.965,1.456,3.965,3.484s-1.475,3.542-4,3.542h-2.67v-7.026h2.709m.031,5.3a1.792,1.792,0,1,0,0-3.571h-.793v3.571h.793m7.147,1.727h5.7v-1.655h-3.774v-1.115h3.372V131.9h-3.372v-1.065h3.722v-1.655h-5.649Zm17.03-7.026c1.777,0,2.919.923,2.919,2.479,0,1.655-1.274,2.539-3.02,2.539H519.5V136.2H517.55v-7.026h3.012m-.141,3.492c.692,0,1.114-.371,1.114-.922,0-.6-.422-.934-1.124-.934H519.5v1.856h.922m4.7,3.534h2.048l.5-1.255h2.711l.512,1.255h2.086l-2.991-7.075h-1.876Zm3.121-2.771.793-2,.783,2Zm13.839,2.771h-2.248l-1.414-2.129h-.853V136.2h-1.948v-7.026h3.323c1.825,0,2.91.856,2.91,2.409a2.235,2.235,0,0,1-1.446,2.167Zm-3.231-3.654c.662,0,1.044-.331,1.044-.843,0-.551-.4-.843-1.054-.843h-1.275v1.686h1.284m6.487,3.653H547.3v-7.026h-1.957Zm8.431-4.375c-.975-.222-1.215-.371-1.215-.694,0-.25.23-.46.7-.46a3.531,3.531,0,0,1,1.966.692l.974-1.375a4.424,4.424,0,0,0-2.891-.934c-1.686,0-2.72.953-2.72,2.26,0,1.443,1.154,1.876,2.651,2.216.953.221,1.183.392,1.183.683s-.281.491-.8.491a3.616,3.616,0,0,1-2.277-.841l-1.085,1.294a4.911,4.911,0,0,0,3.291,1.164c1.707,0,2.84-.864,2.84-2.3,0-1.313-1-1.845-2.618-2.2"/>
</g>
</svg>